<?xml version="1.0" encoding="UTF-8"?>
<svg width="16px" height="16px" viewBox="0 0 16 16" version="1.1" xmlns="http://www.w3.org/2000/svg" xmlns:xlink="http://www.w3.org/1999/xlink">
    <!-- Generator: Sketch 47.1 (45422) - http://www.bohemiancoding.com/sketch -->
    <title>Group 57</title>
    <desc>Created with Sketch.</desc>
    <defs></defs>
    <g id="Page-1" stroke="none" stroke-width="1" fill="none" fill-rule="evenodd">
        <g id="Главная-2-ой-вариант-шапки" transform="translate(-321.000000, -11.000000)" fill="#06B0DC">
            <g id="Group-11">
                <g id="Placeholder">
                    <g id="Group-13">
                        <g id="Group-60" transform="translate(321.000000, 11.000000)">
                            <g id="Group-61">
                                <g id="Group-58">
                                    <g id="Group-57">
                                        <path d="M8,1.33333333 C4.324,1.33333333 1.33333333,4.32333333 1.33333333,8 C1.33333333,11.6766667 4.324,14.6666667 8,14.6666667 C11.676,14.6666667 14.6666667,11.6766667 14.6666667,8 C14.6666667,4.32333333 11.676,1.33333333 8,1.33333333 Z M8,16 C3.58866667,16 0,12.41 0,8 C0,3.59 3.58866667,0 8,0 C12.4113333,0 16,3.59 16,8 C16,12.41 12.4113333,16 8,16 L8,16 Z" id="Fill-103"></path>
                                        <path d="M10.7179487,8.66666667 L7.94871795,8.66666667 C7.60871795,8.66666667 7.33333333,8.37 7.33333333,8 L7.33333333,3.33333333 C7.33333333,2.96666667 7.60871795,2.66666667 7.94871795,2.66666667 C8.28841026,2.66666667 8.56410256,2.96666667 8.56410256,3.33333333 L8.56410256,7.33333333 L10.7179487,7.33333333 C11.057641,7.33333333 11.3333333,7.63333333 11.3333333,8 C11.3333333,8.37 11.057641,8.66666667 10.7179487,8.66666667" id="Fill-104"></path>
                                    </g>
                                </g>
                            </g>
                        </g>
                    </g>
                </g>
            </g>
        </g>
    </g>
</svg>