<?xml version="1.0" encoding="UTF-8"?>
<svg width="16px" height="11px" viewBox="0 0 16 11" version="1.1" xmlns="http://www.w3.org/2000/svg" xmlns:xlink="http://www.w3.org/1999/xlink">
    <!-- Generator: Sketch 47.1 (45422) - http://www.bohemiancoding.com/sketch -->
    <title>Fill 354</title>
    <desc>Created with Sketch.</desc>
    <defs></defs>
    <g id="Page-1" stroke="none" stroke-width="1" fill="none" fill-rule="evenodd">
        <g id="Главная-2-ой-вариант-шапки" transform="translate(-1180.000000, -15.000000)" fill="#06B0DC">
            <g id="Group-11">
                <g id="Placeholder">
                    <g id="Group-13">
                        <g id="Group-65" transform="translate(1180.000000, 11.000000)">
                            <path d="M1.33333333,13.3333333 L1.33333333,6.07333333 L6.13,10 C6.67166667,10.4433333 7.33566667,10.6633333 8,10.6633333 C8.66433333,10.6633333 9.32833333,10.4433333 9.87033333,10 L14.6666667,6.07333333 L14.6666667,13.3333333 L1.33333333,13.3333333 Z M13.4656667,5.33333333 L9.026,8.96666667 C8.43133333,9.45333333 7.56866667,9.45333333 6.974,8.96666667 L2.53433333,5.33333333 L13.4656667,5.33333333 Z M15.997,4.64 C15.996,4.61333333 15.9933333,4.59 15.99,4.56666667 C15.9866667,4.54666667 15.9833333,4.52666667 15.9786667,4.50666667 C15.973,4.48666667 15.966,4.46333333 15.9586667,4.44333333 C15.9513333,4.42333333 15.9436667,4.40333333 15.9343333,4.38333333 C15.9253333,4.36333333 15.9153333,4.34666667 15.9043333,4.32666667 C15.8923333,4.30666667 15.8796667,4.28666667 15.8656667,4.27 C15.8596667,4.26 15.8556667,4.25333333 15.8493333,4.24333333 C15.8423333,4.23666667 15.834,4.23 15.8266667,4.22333333 C15.8113333,4.20666667 15.795,4.19 15.7776667,4.17333333 C15.7616667,4.16 15.7453333,4.14666667 15.7283333,4.13333333 C15.711,4.12 15.6936667,4.11 15.6753333,4.09666667 C15.656,4.08666667 15.637,4.07666667 15.617,4.06666667 C15.5983333,4.05666667 15.579,4.05 15.5596667,4.04333333 C15.538,4.03666667 15.5166667,4.02666667 15.4946667,4.02333333 C15.4753333,4.01666667 15.456,4.01333333 15.436,4.01 C15.4116667,4.00666667 15.3876667,4.00333333 15.363,4.00333333 C15.353,4.00333333 15.3436667,4 15.3333333,4 L0.666666667,4 C0.656333333,4 0.647,4.00333333 0.637,4.00333333 C0.612333333,4.00333333 0.588,4.00666667 0.563666667,4.01 C0.544,4.01333333 0.524666667,4.01666667 0.505666667,4.02333333 C0.483,4.02666667 0.461333333,4.03666667 0.439666667,4.04333333 C0.420666667,4.05 0.402,4.05666667 0.383666667,4.06666667 C0.363,4.07666667 0.343333333,4.08666667 0.324,4.09666667 C0.306,4.11 0.289,4.12 0.272333333,4.13333333 C0.255,4.14666667 0.238333333,4.16 0.222,4.17333333 C0.205,4.19 0.188666667,4.20666667 0.173333333,4.22333333 C0.166333333,4.23 0.157666667,4.23666667 0.150666667,4.24333333 C0.144333333,4.25333333 0.140333333,4.26 0.134333333,4.27 C0.120333333,4.28666667 0.107666667,4.30666667 0.0956666667,4.32666667 C0.0846666667,4.34666667 0.0746666667,4.36333333 0.0656666667,4.38333333 C0.0563333333,4.40333333 0.0486666667,4.42333333 0.0413333333,4.44333333 C0.034,4.46333333 0.027,4.48666667 0.0213333333,4.50666667 C0.0166666667,4.52666667 0.0133333333,4.54666667 0.01,4.56666667 C0.00666666667,4.59 0.004,4.61333333 0.003,4.64 C0.00233333333,4.64666667 0,4.65666667 0,4.66666667 L0,14 C0,14.37 0.298666667,14.6666667 0.666666667,14.6666667 L15.3333333,14.6666667 C15.7013333,14.6666667 16,14.37 16,14 L16,4.66666667 C16,4.65666667 15.9976667,4.64666667 15.997,4.64 L15.997,4.64 Z" id="Fill-354"></path>
                        </g>
                    </g>
                </g>
            </g>
        </g>
    </g>
</svg>