<?xml version="1.0" encoding="UTF-8"?>
<svg width="126px" height="33px" viewBox="0 0 126 33" version="1.1" xmlns="http://www.w3.org/2000/svg" xmlns:xlink="http://www.w3.org/1999/xlink">
    <!-- Generator: Sketch 47.1 (45422) - http://www.bohemiancoding.com/sketch -->
    <title>Fill 13</title>
    <desc>Created with Sketch.</desc>
    <defs></defs>
    <g id="Page-1" stroke="none" stroke-width="1" fill="none" fill-rule="evenodd">
        <g id="Главная-2-ой-вариант-шапки" transform="translate(-719.000000, -133.000000)" fill="#68AF08">
            <g id="Group-11">
                <g id="Placeholder">
                    <g id="Group-13">
                        <g id="Group-67">
                            <g id="Group-68" transform="translate(0.000000, 81.000000)">
                                <g transform="translate(-31.000000, 52.000000)" id="Fill-13">
                                    <path d="M755.085741,28.1295039 C754.930538,29.488189 754.795701,30.881585 754.692466,32.2848984 C754.601171,33.422567 754.526027,34.5623607 754.465631,35.688695 C754.106769,29.853008 753.692426,24.4211012 753.352525,23.5632452 C753.473316,22.2187279 753.605344,20.9655924 753.729647,19.8477586 C754.235987,22.2052685 754.774633,25.0756502 755.085741,28.1295039 Z M764.869139,16.9872944 C764.815063,17.5617958 764.763095,18.1993435 764.716043,18.8900202 C764.680929,18.6520024 764.645113,18.423902 764.609297,18.2064274 C764.697783,17.7870626 764.784163,17.3804489 764.869139,16.9872944 Z M771.214899,29.0128617 C771.059696,28.0933762 770.903791,27.1802661 770.747886,26.279907 C771.021071,25.055107 771.301279,23.8473082 771.581486,22.6713868 C771.457886,24.7505008 771.334286,26.8877026 771.214899,29.0128617 Z M793.084456,15.5570623 C793.041617,16.1018114 793.001587,16.6947308 792.965771,17.3308618 C792.605504,17.7268498 791.903228,20.7204907 791.346324,24.8064634 C791.299974,24.4090586 791.251517,24.0208628 791.202358,23.6383342 C791.752941,20.7984132 792.410271,18.0548327 793.084456,15.5570623 Z M814.387978,16.9787938 C814.399215,16.8789113 814.410451,16.7797372 814.421688,16.6812715 C814.713834,19.4276855 815.668226,25.2577055 816.050967,31.3817058 C815.944221,32.5200827 815.837475,33.6683771 815.733538,34.8102959 C815.109918,32.1297618 814.460313,29.3805143 813.832479,26.7906536 C813.810006,26.3875818 813.786831,25.9845099 813.762251,25.5814381 C813.75874,25.5212252 813.755228,25.4617208 813.751717,25.4022163 C813.861272,22.2980672 814.102152,19.3780985 814.387978,16.9787938 Z M820.838378,30.0938593 C820.818012,30.551477 820.794134,31.0105113 820.766746,31.4688373 C820.762532,31.5722617 820.757616,31.6763945 820.753402,31.779819 C820.671938,30.9460482 820.591177,30.1285703 820.510415,29.3373027 C820.618565,29.5866547 820.727418,29.8388402 820.838378,30.0938593 Z M823.89468,25.4610124 C824.137667,24.3226354 824.372227,23.3457706 824.552712,22.5743378 C824.575887,23.2735152 824.596955,23.9755261 824.615917,24.6789538 C824.615214,24.6959551 824.614512,24.7129563 824.613108,24.7299576 C824.414364,26.8522832 824.32377,29.4010575 824.391891,32.0730909 C824.096935,31.5410927 823.803384,31.0147617 823.513344,30.4955144 C823.491574,29.6574933 823.457162,28.8230142 823.411515,27.997744 C823.561099,27.0903011 823.725432,26.2359871 823.89468,25.4610124 Z M835.570008,17.0156299 C835.55526,17.0475072 835.539108,17.080093 835.523658,17.1126788 C835.392332,16.2817416 835.268029,15.6711125 835.154963,15.334629 C835.230809,14.6772464 835.307357,14.0460741 835.3825,13.4467792 C835.434469,14.4349783 835.506101,15.6441938 835.570008,17.0156299 Z M838.233738,45.9815493 C838.145251,44.8197956 838.045528,43.5142395 837.935271,42.1095093 C838.053956,40.5092644 838.158595,38.7914274 838.233738,37.0204614 C838.214777,39.8589657 838.293432,42.5982959 838.401582,44.9189697 C838.343293,45.2859138 838.287111,45.6408154 838.233738,45.9815493 Z M852.884607,36.4218749 C853.049641,41.9508307 853.536318,46.8556981 853.789137,49.1133255 C853.78071,49.1770802 853.772283,49.2351679 853.763855,49.2960892 C853.450641,48.3766036 852.964666,46.8953677 852.420403,45.0372702 C852.343855,44.7801259 852.266604,44.5123559 852.188652,44.2403355 C852.16337,42.3163581 852.071372,40.1260274 851.903528,37.8159794 C852.140195,36.636516 852.383182,35.4202166 852.628978,34.1847907 C852.713954,34.9349719 852.799631,35.6823196 852.884607,36.4218749 Z M866.437819,21.4522538 C866.100727,23.7764695 865.728521,26.5299674 865.352803,29.4095581 C865.142823,28.6926711 864.933545,27.9864098 864.727778,27.2964415 C865.302942,25.126654 865.911112,23.1290044 866.437819,21.4522538 Z M858.559694,27.8610255 C858.541435,29.1198281 858.507725,30.4005907 858.452948,31.6799365 C858.321622,36.0783076 857.951523,40.4334671 857.584936,43.8918094 C857.464144,43.1402115 857.353185,42.3439852 857.256271,41.5087976 C857.669209,37.0934252 858.140435,31.8889105 858.511237,27.3297357 C858.527389,27.5054155 858.543541,27.6832205 858.559694,27.8610255 Z M864.071853,39.5579015 C863.821843,38.4988638 863.57394,37.3930727 863.333762,36.2539874 C863.284602,35.6114809 863.236848,34.962599 863.193307,34.3094667 C863.225611,34.1288282 863.257214,33.9481897 863.290221,33.7682595 C863.363257,33.3418109 863.443317,32.9167791 863.525483,32.493164 C863.816225,33.939689 864.113287,35.3996734 864.408945,36.8327391 C864.293772,37.7586001 864.180706,38.6710017 864.071853,39.5579015 Z M867.658373,33.9609406 C867.746158,35.1722814 867.862033,36.3574118 868.001084,37.5014558 C867.980015,37.8039368 867.958947,38.1092513 867.938581,38.416691 C867.816385,37.9838669 867.692785,37.5460841 867.568482,37.1054678 C867.581825,36.0698069 867.610619,35.0171447 867.658373,33.9609406 Z M834.488504,38.3550614 C834.456901,38.5519928 834.425299,38.7489242 834.392994,38.9437305 C834.219532,35.8679168 834.135259,32.4556196 834.200571,29.0362385 C834.20338,28.7252568 834.208296,28.4149836 834.214616,28.1047104 C834.277821,27.6598437 834.343835,27.2192274 834.412658,26.7856949 C834.40704,30.4799299 834.441451,34.5786536 834.488504,38.3550614 Z M823.986678,37.1961413 C823.733859,39.2440863 823.488063,41.1616883 823.263334,42.8788169 C823.243671,42.7513073 823.224709,42.6230894 823.205748,42.4934547 C823.361653,40.5609766 823.488063,38.4244833 823.541435,36.2036919 C823.689616,36.5352168 823.838498,36.8660332 823.986678,37.1961413 Z M762.423816,33.1052099 C762.389404,33.3354355 762.353588,33.5649526 762.31707,33.7944698 C762.396427,32.7857276 762.489127,31.7677764 762.59798,30.7505335 C762.607812,30.6471091 762.618346,30.5436847 762.62888,30.4395519 C762.665399,30.601064 762.701215,30.7632845 762.737733,30.925505 C762.645033,31.6501842 762.541798,32.3776971 762.423816,33.1052099 Z M783.09178,35.0107693 C783.058773,32.8990694 783.140939,30.7958703 783.272264,28.8350567 C783.297546,29.6589101 783.311592,30.4884306 783.310889,31.3186594 C783.334065,33.4898637 783.272967,35.6554009 783.151473,37.7104298 C783.117764,36.8192797 783.096695,35.9160871 783.09178,35.0107693 Z M782.838258,22.0189629 C782.855113,22.2052685 782.871967,22.3929909 782.888822,22.5821301 C782.830533,22.8229815 782.772244,23.0765838 782.713253,23.3358532 C782.71536,23.0078703 782.716062,22.6855545 782.716764,22.371031 C782.757496,22.252022 782.797526,22.1351383 782.838258,22.0189629 Z M875.443096,15.6831551 C875.114431,15.6484441 874.386171,18.9502331 873.535014,23.5434104 C872.92895,18.2446802 872.393816,14.3173861 872.143104,14.3485551 C871.801096,14.3917667 872.041976,21.7384419 872.414182,29.8863021 C872.218949,31.0296378 872.024419,32.1920998 871.831293,33.3552703 C871.355151,25.6515683 871.666961,18.2786828 871.305289,18.227679 C871.075645,18.1858842 870.588266,21.1986515 870.263815,25.4482614 C870.187969,19.577155 870.874794,13.7563441 871.648,9.37355751 C872.449998,4.78321372 873.219692,1.73856903 872.931759,1.66277168 C872.702115,1.59972529 871.433806,4.5189856 870.157069,9.09161973 C869.639492,10.9341327 869.142983,13.0536248 868.719511,15.3410044 C868.676673,15.1709917 868.635238,15.0789015 868.596613,15.0810266 C868.470204,15.0881105 868.380312,16.0756011 868.318512,17.7140988 C868.148562,18.8220151 867.999679,19.9582669 867.875376,21.1136451 C867.774951,21.5032576 867.673823,21.909163 867.572696,22.3299445 C867.696296,20.1169455 867.781974,18.2326377 867.806553,16.9072467 C867.860629,16.6387683 867.865545,16.4772562 867.813576,16.4340446 C867.821301,15.4309695 867.784783,14.8508011 867.689273,14.8352166 C867.568482,14.8160901 867.360609,15.7079486 867.097255,17.2217703 C866.320539,18.4203601 865.034673,20.8720854 863.726334,23.9889855 C863.330953,22.7075145 862.958747,21.5330099 862.621654,20.5150586 C862.537381,16.3185777 862.5121,13.398609 862.298608,13.3773574 C862.136382,13.3568142 861.875838,15.0533996 861.637064,17.7452678 C861.326659,16.968168 861.097015,16.5353439 860.976223,16.5608458 C860.739557,16.6090161 860.9383,18.392733 861.387054,21.1242709 C861.344918,21.8135309 861.30559,22.5339598 861.270477,23.2798907 C860.37016,15.0016874 860.380694,7.98795374 859.948794,7.96953569 C859.685441,7.94757571 859.278122,10.5473538 859.058309,14.4888156 C858.80549,12.9416997 858.584976,12.0413406 858.4691,12.0689677 C858.321622,12.0958864 858.347607,13.5707469 858.410811,15.9317987 C858.271059,16.2349881 858.124283,16.5658045 857.971889,16.9263732 C857.664293,15.8404168 857.43184,15.228371 857.334926,15.2652071 C857.204302,15.3084187 857.2963,16.3709982 857.492235,18.1072533 C857.34546,18.4848232 857.195875,18.8836448 857.044886,19.3008843 C856.146676,21.7469425 855.283579,24.8695097 854.679622,28.2180522 C854.637486,26.7786111 854.616418,25.3646718 854.609395,24.0102371 C856.17898,15.7299086 857.367933,8.76434522 856.941651,8.6821724 C856.678298,8.63116858 855.822927,11.2118202 854.68805,15.1157376 C854.701393,13.5813727 854.681027,12.6618871 854.56164,12.6420523 C854.354469,12.597424 853.854449,15.3948418 853.445725,19.5020661 C853.192906,20.4137594 852.933064,21.3594552 852.669008,22.3292362 C851.801698,17.5497532 851.095911,14.1218715 850.863458,14.1757088 C850.581846,14.2408804 851.034813,19.4000584 851.715318,25.8662094 C851.449858,26.8572419 851.182993,27.8596087 850.916831,28.864809 C850.339561,24.9686838 849.568462,21.2829495 848.852844,18.3679395 C849.164654,14.5469033 849.404832,11.9676685 849.210302,11.9152479 C849.070549,11.8713279 848.70045,13.2215124 848.253803,15.4550546 C848.222903,15.5202262 848.190598,15.6016906 848.156889,15.6987396 C847.52765,13.4368618 847.031142,12.0788851 846.897709,12.1419315 C846.712309,12.2134785 847.10769,14.5072337 847.643526,17.9634508 C847.44127,19.1436226 847.245336,20.6539023 847.096453,22.3809484 C847.076087,22.526876 847.055721,22.6742203 847.035355,22.8215647 C846.295157,16.4673388 845.601309,11.5702637 845.22208,11.5922237 C844.83934,11.614892 844.827402,16.6366431 844.97207,23.1042109 C844.82389,21.1405638 844.712228,19.2548392 844.622337,17.5235429 C844.90395,13.5757056 844.991032,10.9114644 844.716442,10.8810037 C844.628658,10.8717947 844.507164,11.1317725 844.357579,11.6156004 C844.265581,9.49752513 844.191842,8.21038706 844.059815,8.20259481 C843.85475,8.17780129 843.52749,11.2635324 843.384928,15.8049975 C843.191802,16.759194 842.986738,17.8217736 842.771842,18.9672344 C842.488122,14.8295495 842.218449,12.0045046 842.011277,12.0130052 C841.703681,12.0264645 841.581485,18.2857667 841.545669,25.8102469 C841.10464,28.3576043 840.656588,31.0218455 840.226796,33.6244571 C839.942374,25.482264 840.424837,17.5327519 840.053334,17.4697055 C839.714135,17.4009921 838.693729,24.1299544 838.365766,31.6983545 C838.456359,23.02558 837.61714,14.8925959 837.256171,14.9414745 C837.156448,14.9513919 837.096754,15.5761887 837.051106,16.6472689 C836.567941,13.8725195 836.039128,11.823866 835.69712,11.0021378 C836.025082,8.51003451 836.237872,6.96646057 836.09531,6.91829029 C835.801759,6.7773214 833.739878,14.2670907 832.701915,23.3726893 C832.074783,18.6590863 831.275594,15.0781931 830.923052,14.3039268 C830.800154,13.4156102 830.68498,12.9190314 830.597898,12.9296572 C830.213051,12.9650765 830.412498,22.5835469 829.689856,32.0993012 C829.541676,34.3604706 829.343634,36.6081806 829.127334,38.7255475 C828.962299,36.3758298 828.874515,33.8511407 828.901201,31.3186594 C828.89769,21.4862564 830.868274,11.6977732 830.319095,11.5943488 C830.002369,11.5171347 828.691221,15.3941334 827.59216,20.8154144 C827.852704,16.1896513 828.033189,11.7891551 828.111843,8.2500567 C828.224208,3.41673638 828.172239,0.190036383 827.984029,0.176577041 C827.787392,0.162409313 827.472071,3.35935708 827.02753,8.14663229 C826.84845,10.09682 826.643386,12.313361 826.417253,14.6829135 C826.358964,13.7343841 826.279607,13.1868014 826.151793,13.1783008 C825.887737,11.2890343 825.63843,9.5145264 825.389122,7.92278219 C824.647519,3.1347986 823.957182,-0.0281466249 823.696638,0.000188830647 C823.420644,0.0306494453 823.599724,3.24743203 823.873612,8.0573756 C824.088508,11.7183165 824.330793,16.3051183 824.50285,21.1122283 C824.177697,21.6704368 823.673463,22.763477 823.129902,24.2595891 C822.466252,17.289067 821.187408,11.7905719 820.789921,11.8578686 C820.355914,11.9138311 820.991474,18.3445627 820.940208,25.9646751 C820.596093,25.3710473 820.267428,24.8085885 819.954915,24.2829658 C819.708417,22.2513137 819.486498,20.7927461 819.317249,20.3018343 C819.177496,16.5303852 819.00895,13.9738187 818.807397,13.9709852 C818.603737,13.9681516 818.387437,16.5707632 818.178861,20.4024252 C818.204845,17.5809222 818.154281,15.749035 817.980819,15.730617 C817.810869,15.7129073 817.536279,17.4442036 817.211828,20.1466977 C816.96252,20.1091532 816.996931,20.3854239 817.128959,20.8515422 C817.069968,21.35733 817.009572,21.8893282 816.948474,22.4475367 C816.003212,18.6357095 815.040392,15.8375833 814.60147,15.187993 C814.946287,12.4125351 815.218068,10.6529033 815.049522,10.5905653 C814.88238,10.5246854 814.093725,12.9218649 813.321924,16.7011063 C813.28049,16.8980377 813.239758,17.1013446 813.199729,17.3053599 C812.927246,13.8597685 812.624565,10.6429859 812.322587,7.94403378 C811.793071,3.15675857 811.299371,-0.00689503323 811.113971,0.0221488087 C810.916631,0.0519010369 811.044446,3.26868362 811.24038,8.0786272 C811.31131,9.77096228 811.386454,11.6630623 811.458788,13.6812551 C811.364683,14.1516237 811.276196,15.184451 811.194732,16.6189335 C810.69401,14.92589 810.318995,13.9178562 810.142022,13.9476084 C809.806334,14.0028626 810.217867,17.7651027 810.936997,22.8831943 C810.77407,28.0551233 810.646958,34.491522 810.557769,39.938305 C810.119549,28.5021151 809.420083,12.5542124 808.924978,12.5676717 C808.604039,12.5761724 808.420043,19.2973424 808.314701,27.14343 C808.288015,26.1396465 808.259924,25.1620733 808.23113,24.2220446 C808.216383,18.2524725 808.544345,13.6245842 808.167926,13.5799559 C808.059073,13.5629546 807.891931,13.950442 807.695997,14.6517445 C807.658074,14.4633137 807.619449,14.3591809 807.579419,14.3584725 C807.460734,14.3570557 807.339241,15.2397052 807.219152,16.7294418 C807.203702,16.8094894 807.187549,16.8874119 807.172099,16.9702931 C807.161565,15.5754803 807.106788,14.7452515 806.992317,14.7325005 C806.556204,14.6822051 805.346183,26.4463778 804.382661,36.6173896 C804.387577,34.9597654 804.424096,33.2490123 804.506262,31.536134 C804.818774,21.7044394 806.616599,11.9364995 806.083572,11.8337834 C805.783701,11.7671951 804.729586,14.960601 803.693729,19.5920312 C804.336311,14.2833836 805.131287,10.4673061 804.896025,10.3794662 C804.729586,10.3072108 803.879832,12.6852639 803.000584,16.4489208 C802.569387,18.258848 802.156449,20.4003 801.808822,22.7209738 C801.881157,21.4465867 801.8945,20.6772791 801.775815,20.6446933 C801.492096,20.5497695 800.440088,24.9509742 799.766606,30.5401428 C799.121917,21.744109 798.381016,13.2385136 797.862035,12.1072206 C797.837455,8.5780396 797.754587,6.2984522 797.581827,6.28782641 C797.531263,6.28499286 797.473677,6.47838235 797.411174,6.83824263 C797.385892,6.29916059 797.347267,6.00234669 797.285467,5.99526283 C796.947672,5.93788353 795.961678,14.8755946 796.005219,24.9162632 C795.889343,26.8026962 795.775575,28.7259652 795.665317,30.6315246 C795.627395,30.3368359 795.590876,30.0414388 795.55506,29.7474584 C795.64144,21.9941694 795.623181,15.1313221 795.288196,15.1079453 C795.114734,15.0959028 794.86964,16.9377074 794.59505,19.7917961 C794.325376,16.3979169 794.142785,13.7280086 793.942636,12.5265853 C794.137166,11.8720363 794.330292,11.2401556 794.519204,10.6415691 C795.873191,6.33032959 796.936436,3.52016079 796.749631,3.38769254 C796.600046,3.27860103 795.210945,5.86562812 793.529698,10.0628175 C792.528956,12.5527956 791.454474,15.6349848 790.487441,19.0132795 C790.415107,18.6222502 790.343475,18.2545977 790.272545,17.9110303 C790.210745,16.7018147 790.130685,15.5613126 790.033771,14.5143175 C789.667886,10.3638817 789.15382,7.66067923 788.978954,7.693265 C788.772485,7.72868432 788.91926,10.4864325 788.948054,14.5979071 C788.965611,16.1145624 788.952267,17.8175233 788.901704,19.6324092 C788.431179,22.4262851 787.892534,27.0364637 787.725392,31.9469981 C787.706431,32.0794664 787.688874,32.2112263 787.670615,32.3436945 C787.598983,32.4726208 787.527351,32.6015472 787.455719,32.7311819 C787.466955,30.4367184 787.502069,28.0593736 787.570189,25.6813205 C787.727499,19.2746741 788.056164,12.8673192 788.338479,8.0573756 C788.612366,3.24743203 788.792149,0.0306494453 788.516154,0.000188830647 C788.25561,-0.0281466249 787.565274,3.1347986 786.823671,7.92278219 C786.213393,11.8160738 785.601712,16.7868211 785.118546,21.9707926 C785.008991,20.1027777 784.898734,18.3296866 784.791988,16.7223579 C785.364343,15.2198704 785.702839,14.3074687 785.590475,14.2217539 C785.519545,14.1615411 785.192285,14.5794891 784.69999,15.3792573 C784.414164,11.3138278 784.150108,8.59716603 783.955578,8.60637505 C783.7463,8.61629246 783.638852,11.7714454 783.592502,16.3639144 C782.815785,13.4014425 782.114212,11.5405115 781.893698,11.5943488 C781.680908,11.6340185 781.845943,13.1244634 782.127555,15.5053501 C781.805913,16.3738318 781.370503,19.2888418 780.904192,23.1070444 C780.757416,23.4669047 780.610641,23.835974 780.46527,24.2107104 C781.061501,15.9204645 781.469523,8.94923407 781.160522,8.89823025 C780.739859,8.82880838 779.080383,21.5726795 777.669512,33.0676654 C777.515713,33.693879 777.371044,34.3208009 777.235505,34.9470145 C777.064852,33.587621 776.917375,32.1977669 776.805011,30.8029541 C775.86958,20.7771616 777.319076,10.6833639 776.783942,10.6068582 C776.378027,10.5190183 774.799312,16.6026406 774.231171,24.1823749 C774.174287,19.5721963 774.085098,15.5584791 773.949559,13.3249368 C774.822487,9.99552076 775.387117,7.84202614 775.226296,7.75206107 C775.08865,7.66847148 774.366711,9.28359244 773.373693,11.9542091 C773.361754,7.51758518 773.280993,4.54944621 773.087165,4.53811203 C772.840666,4.5239443 772.441071,9.29988533 772.011279,15.8028724 C771.38204,17.6602615 770.71207,19.7471678 770.049122,21.9637088 C770.013306,21.7873206 769.972574,21.66902 769.926223,21.6130575 C768.820842,15.4798482 767.861534,10.8406257 767.496351,10.8810037 C767.022315,10.9341327 767.626974,18.8524758 768.449338,27.6718863 C768.355233,28.0310382 768.262533,28.3916069 768.171237,28.7528839 C767.727399,30.4700125 767.307439,32.1984753 766.917676,33.8922272 C767.2955,23.2281785 767.572899,11.6262262 766.990712,11.5922237 C766.705589,11.5759308 766.242789,14.3372209 765.716083,18.4061923 C765.650771,16.2512809 765.612848,14.6786632 765.525064,14.0347399 C766.000504,11.9251653 766.292651,10.626693 766.159218,10.5593963 C766.00542,10.4580971 765.126171,12.4925828 764.075567,15.7596608 C763.967417,15.4309695 763.869801,15.2538729 763.793955,15.2652071 C763.632432,15.2800832 763.574143,16.1166875 763.532006,17.5150423 C763.079741,19.0309891 762.61343,20.7325332 762.173806,22.554503 C762.046694,22.1365551 761.922391,21.7334832 761.8016,21.3452875 C761.692045,13.3334374 761.512262,6.85595229 761.218711,6.84957681 C760.978533,6.84390972 760.691303,11.1374396 760.408286,17.058133 C760.097178,16.2930757 759.922311,15.936049 759.845763,15.9686348 C759.731994,16.0168051 759.840847,16.9221229 760.106307,18.4154014 C759.963043,20.7544932 759.847168,25.5807297 759.315545,30.7710767 C758.611865,28.0976265 757.893437,25.4000911 757.201696,22.8520253 C757.645534,17.5972151 758.154684,13.719508 757.910994,13.6451274 C757.720678,13.5757056 757.049303,16.0274309 756.349836,19.7407923 C754.591339,13.3893999 753.424157,8.53695319 753.067401,8.60637505 C752.803346,8.65737887 752.877787,11.4179606 753.558292,15.4196353 C753.050547,14.3804325 752.672722,13.8080563 752.550527,13.8484343 C752.365126,13.9029801 752.633395,15.0498576 753.067401,16.9136222 C752.677638,18.1327552 749.806034,39.5012306 750.010397,42.0712564 C750.051831,43.2287597 750.115036,44.3196748 750.195095,45.3206248 C750.200713,45.4906375 750.205629,45.6599418 750.209141,45.8249959 C750.256193,47.513789 750.082731,52 750.082731,52 L876,52 C876,52 875.310366,40.3633368 874.601067,33.4558611 C875.35812,24.5861552 875.977527,15.739826 875.443096,15.6831551 Z"></path>
                                </g>
                            </g>
                        </g>
                    </g>
                </g>
            </g>
        </g>
    </g>
</svg>