<svg xmlns="http://www.w3.org/2000/svg" viewBox="0 0 1140 50">
  <g fill="none" fill-rule="evenodd">
    <path fill="#FFF" d="M10.502 33.903l6.14-6.14a1.5 1.5 0 0 1 2.12 0l1.48 1.48a1.5 1.5 0 0 1 0 2.12l-6.14 6.14 6.14 6.138a1.5 1.5 0 0 1 0 2.122l-1.48 1.478a1.5 1.5 0 0 1-2.12 0l-6.14-6.139-6.139 6.14a1.5 1.5 0 0 1-2.12 0l-1.48-1.48a1.5 1.5 0 0 1 0-2.12l6.14-6.14-6.14-6.139a1.5 1.5 0 0 1 0-2.12l1.48-1.48a1.5 1.5 0 0 1 2.12 0l6.14 6.14zm1076.238 9.458c3.335-5.855 5.003-12.473 5.003-19.853h48.037c-25.504 9.468-43.184 16.086-53.04 19.853zm0-42.853c9.856 3.768 27.536 10.385 53.04 19.853h-48.037c0-7.38-1.668-13.998-5.003-19.853z"/>
    <path stroke="#FFF" stroke-dasharray="6" stroke-width="2" d="M10.02 30.97c-.5-7.429 8.113-15.157 27.603-13.818 19.49 1.34 15.74 18.864 42.166 18.864 26.427 0 33.803-20.237 63.401-18.864 29.598 1.374 22.08 23.374 42.88 23.797 20.8.423 24.283-20.959 43.63-22.037 19.348-1.079 20.709 17.104 44.857 17.104s17.104-18.493 51.69-17.104c34.587 1.389 40.342 22.037 71.142 22.037 30.801 0 24.108-22.037 52.186-22.037 28.077 0 32.898 22.493 60.082 22.037 27.183-.457 16.468-23.797 44.715-23.797 28.248 0 36.078 23.797 68.164 23.797s20.559-25.905 60.228-23.797c39.669 2.109 45.26 31.226 79.569 31.226 34.308 0 20.982-31.226 57.752-31.226s49.423 29.702 89.182 31.226c39.758 1.524 61.086-24.265 92.392-24.265 31.306 0 10.307 25.692 33.164 24.265 22.857-1.426 30.608-27.707 50.177-29.466"/>
  </g>
</svg>
