<?xml version="1.0" encoding="UTF-8"?>
<svg width="16px" height="16px" viewBox="0 0 16 16" version="1.1" xmlns="http://www.w3.org/2000/svg" xmlns:xlink="http://www.w3.org/1999/xlink">
    <!-- Generator: Sketch 47.1 (45422) - http://www.bohemiancoding.com/sketch -->
    <title>Fill 352</title>
    <desc>Created with Sketch.</desc>
    <defs></defs>
    <g id="Page-1" stroke="none" stroke-width="1" fill="none" fill-rule="evenodd">
        <g id="Главная-2-ой-вариант-шапки" transform="translate(-1010.000000, -11.000000)" fill="#06B0DC">
            <g id="Group-11">
                <g id="Placeholder">
                    <g id="Group-13">
                        <g id="Group-66" transform="translate(1010.000000, 11.000000)">
                            <path d="M3.42274507,1.33572244 C3.3625697,1.33572244 3.27932709,1.35243782 3.2007648,1.41595628 L2.21656309,2.24838231 C1.31259521,3.01060375 1.07323094,4.31440356 1.64790578,5.35075727 C3.71626719,9.08497367 6.75980399,12.1104579 10.6942707,14.3436329 C11.744331,14.9420436 13.0651805,14.7113713 13.835091,13.7987115 L14.5816,12.9127962 C14.6711944,12.8058178 14.6678514,12.6921532 14.6578221,12.6319778 C14.6481272,12.5718024 14.6133592,12.464824 14.4940114,12.3946194 L12.0401933,10.937038 L10.5328001,11.6557995 C10.3322155,11.7527487 10.0971972,11.7427195 9.90530463,11.6290549 C7.61462864,10.281795 5.76991905,8.43641684 4.42199063,6.14640946 C4.29094203,5.92242334 4.30030264,5.64494799 4.44572647,5.4309911 L5.43427418,3.98009592 L3.70690657,1.48616088 C3.63135304,1.37583936 3.52537752,1.34575167 3.46887953,1.33906552 C3.45584153,1.33906552 3.44012907,1.33572244 3.42274507,1.33572244 Z M11.9382294,16.0118281 C11.289004,16.0118281 10.6324238,15.8480173 10.0336788,15.5070235 C5.88258073,13.1501546 2.6675441,9.95083047 0.47816333,5.9993141 C-0.405411778,4.40466663 -0.0366704445,2.39547768 1.35471798,1.22540092 L2.33925399,0.396317956 C2.70097487,0.0887549218 3.17602603,-0.048311213 3.64572827,0.0152072397 C4.11409329,0.075382616 4.53732676,0.33614258 4.80644442,0.723939449 L6.7949063,3.59564213 C6.9523652,3.82297133 6.95370243,4.12384821 6.79791507,4.35452048 L5.79332059,5.8288172 C6.94033012,7.65413695 8.44738899,9.15517828 10.281735,10.2951673 L11.7861194,9.57640591 C11.987707,9.47945669 12.2237282,9.48948592 12.4156207,9.60315052 L15.1770019,11.2446011 C15.6025755,11.4953318 15.8940918,11.9199025 15.9763315,12.4079917 C16.0589055,12.8994239 15.9231766,13.3941992 15.6042471,13.7753099 L14.8574038,14.6612252 C14.113235,15.5437974 13.0357614,16.0118281 11.9382294,16.0118281 L11.9382294,16.0118281 Z" id="Fill-352"></path>
                        </g>
                    </g>
                </g>
            </g>
        </g>
    </g>
</svg>