<?xml version="1.0" encoding="UTF-8"?>
<svg width="12px" height="16px" viewBox="0 0 12 16" version="1.1" xmlns="http://www.w3.org/2000/svg" xmlns:xlink="http://www.w3.org/1999/xlink">
    <!-- Generator: Sketch 47.1 (45422) - http://www.bohemiancoding.com/sketch -->
    <title>Group 59</title>
    <desc>Created with Sketch.</desc>
    <defs></defs>
    <g id="Page-1" stroke="none" stroke-width="1" fill="none" fill-rule="evenodd">
        <g id="Главная-2-ой-вариант-шапки" transform="translate(-521.000000, -11.000000)" fill="#06B0DC">
            <g id="Group-11">
                <g id="Placeholder">
                    <g id="Group-13">
                        <g id="Group-60" transform="translate(321.000000, 11.000000)">
                            <g id="Group-61">
                                <g id="Group-59" transform="translate(200.000000, 0.000000)">
                                    <path d="M5.86133333,3.11 C4.34266667,3.11 3.11133333,4.34333333 3.11133333,5.86 C3.11133333,7.38 4.34266667,8.61 5.86133333,8.61 C7.38,8.61 8.61133333,7.38 8.61133333,5.86 C8.61133333,4.34333333 7.38,3.11 5.86133333,3.11 Z M5.86133333,4.11 C6.82633333,4.11 7.61133333,4.89666667 7.61133333,5.86 C7.61133333,6.82666667 6.82633333,7.61 5.86133333,7.61 C4.89633333,7.61 4.11133333,6.82666667 4.11133333,5.86 C4.11133333,4.89666667 4.89633333,4.11 5.86133333,4.11 L5.86133333,4.11 Z" id="Fill-375"></path>
                                    <path d="M5.86133333,1.33333333 C3.36466667,1.33333333 1.33333333,3.36666667 1.33333333,5.86 C1.33333333,6.72333333 1.576,7.56 2.035,8.28333333 L5.86133333,14.1166667 L9.69033333,8.28 C10.1476667,7.55666667 10.389,6.72333333 10.389,5.86 C10.389,3.36666667 8.358,1.33333333 5.86133333,1.33333333 Z M5.86133333,16 C5.63666667,16 5.427,15.8866667 5.304,15.7 L0.914666667,9.00666667 C0.314666667,8.06333333 0,6.97666667 0,5.86 C0,2.63 2.62933333,0 5.86133333,0 C9.09333333,0 11.7223333,2.63 11.7223333,5.86 C11.7223333,6.97666667 11.408,8.06333333 10.813,9 C10.8116667,9 10.8096667,9.00333333 10.808,9.00666667 L6.41866667,15.7 C6.29566667,15.8866667 6.086,16 5.86133333,16 L5.86133333,16 Z" id="Fill-376"></path>
                                </g>
                            </g>
                        </g>
                    </g>
                </g>
            </g>
        </g>
    </g>
</svg>