<svg xmlns="http://www.w3.org/2000/svg" viewBox="0 0 44 40">
  <path fill="#FFF" d="M12.66.708c-3.433 0-5.9 2.855-5.9 5.936 0 1.447.55 2.87 1.49 3.957H1.352a.978.978 0 0 0-.092 0c-.483.046-.893.501-.89.99v6.925c0 .518.468.99.982.99h1.475v18.797c0 .518.469.99.983.99h36.38c.514 0 .983-.472.983-.99V19.505h1.475c.514 0 .983-.471.983-.989v-6.925c0-.518-.469-.99-.983-.99H35.75a6.111 6.111 0 0 0 1.49-3.957c0-3.081-2.467-5.936-5.9-5.936-2.65 0-4.591 1.818-6.114 3.91-1.204 1.655-2.223 3.555-3.226 5.18-1.003-1.625-2.022-3.525-3.226-5.18-1.523-2.092-3.465-3.91-6.115-3.91zm0 1.978c1.753 0 3.153 1.197 4.531 3.092 1.045 1.436 2.03 3.179 3.042 4.823h-7.712c-2.183 0-3.794-1.998-3.794-3.957 0-2.031 1.577-3.958 3.932-3.958zm18.68 0c2.356 0 3.933 1.927 3.933 3.958 0 1.96-1.61 3.957-3.794 3.957h-7.712c1.012-1.644 1.997-3.387 3.042-4.823 1.378-1.895 2.778-3.092 4.532-3.092zM2.337 12.58h15.24v4.947H2.336V12.58zm17.206 0h4.916v24.734h-4.916V12.58zm6.882 0h15.24v4.947h-15.24V12.58zm-21.63 6.925h12.782v17.809H4.794V19.505zm21.63 0h12.782v17.809H26.424V19.505z"/>
</svg>
