<?xml version="1.0" encoding="UTF-8"?>
<svg width="100px" height="100px" viewBox="0 0 100 100" version="1.1" xmlns="http://www.w3.org/2000/svg" xmlns:xlink="http://www.w3.org/1999/xlink">
    <!-- Generator: Sketch 47.1 (45422) - http://www.bohemiancoding.com/sketch -->
    <title>#79ba21ff</title>
    <desc>Created with Sketch.</desc>
    <defs></defs>
    <g id="Page-1" stroke="none" stroke-width="1" fill="none" fill-rule="evenodd">
        <g id="Главная-2-ой-вариант-шапки" transform="translate(-670.000000, -2142.000000)" fill-rule="nonzero" fill="#FFFFFF">
            <g id="Group-37" transform="translate(0.000000, 1661.000000)">
                <g id="Group-35" transform="translate(577.000000, 481.000000)">
                    <g id="#79ba21ff" transform="translate(93.000000, 0.000000)">
                        <path d="M58.2582781,6.26821192 C63.2218543,2.38410596 69.5033113,0.142384106 75.8178808,0.221854305 C83.7251656,0.195364238 91.6357616,0.264900662 99.5430464,0.185430464 C99.9271523,2.53642384 99.6622517,4.92384106 99.7450331,7.29470199 C100.062914,16.7615894 94.7152318,25.7781457 87.1423841,31.192053 C81.8675497,35.2218543 75.1589404,37.1854305 68.5562914,37.0198675 C65.6390728,36.9735099 62.718543,37.1059603 59.8046358,36.9370861 C59.7251656,34.6225166 59.5331126,32.2748344 59.9205298,29.9801325 C64.1721854,29.8245033 68.4470199,30.2086093 72.6821192,29.7119205 C77.4337748,28.6490066 81.9271523,26.2317881 85.294702,22.692053 C87.3278146,20.5860927 89.3211921,18.3609272 90.5860927,15.6953642 C91.910596,13.0562914 92.7284768,10.1390728 92.8013245,7.18211921 C87.4801325,6.94039735 82.1456954,7.14569536 76.8211921,7.06953642 C67.3410596,6.81456954 58.1490066,13.1721854 54.897351,22.0529801 C54.1523179,24.3476821 53.5264901,26.7218543 53.5364238,29.1523179 C53.4205298,35.0430464 53.602649,40.9370861 53.3344371,46.8278146 C52.4735099,46.3476821 51.7119205,45.7086093 51.0463576,44.986755 C49.7582781,43.6225166 48.3774834,42.3476821 47.0728477,41 C45.8741722,39.8046358 46.4172185,37.9503311 46.3774834,36.4470199 C46.2748344,34.115894 46.4205298,31.7880795 46.307947,29.4602649 C46.218543,20.3807947 51.0298013,11.6291391 58.2582781,6.26821192 Z" id="Shape"></path>
                        <path d="M0.238410596,36.6490066 C0.92384106,36.5397351 1.62251656,36.5562914 2.31456954,36.5529801 C9.9205298,36.589404 17.5231788,36.5264901 25.1291391,36.5827815 C28.7417219,36.910596 32.3576159,37.6688742 35.6688742,39.1887417 C39.0728477,40.7682119 42.1655629,42.9801325 44.8741722,45.5629139 C49.910596,50.5695364 53.2582781,57.410596 53.4006623,64.5761589 C53.384106,75.8377483 53.3907285,87.0993377 53.397351,98.3609272 C53.3807947,98.8543046 53.4503311,99.8245033 52.6953642,99.7450331 C50.6655629,99.7582781 48.6291391,99.8046358 46.5993377,99.7152318 C46.1390728,98.6490066 46.3443709,97.4536424 46.3046358,96.3311258 C46.2483444,93.4668874 46.5298013,90.6092715 46.3576159,87.7450331 C46.1887417,79.5827815 46.4735099,71.4139073 46.1788079,63.2549669 C45.0397351,53.6556291 36.8741722,45.6953642 27.5,43.9503311 C25.6291391,43.692053 23.7417219,43.513245 21.8509934,43.5463576 C16.9205298,43.5794702 11.986755,43.5 7.05629139,43.589404 C6.88410596,48.9933775 9.50331126,54.1788079 13.2218543,57.986755 C16.6688742,61.4403974 20.7880795,64.4304636 25.5496689,65.7317881 C30.2880795,66.8013245 35.1688742,66.2417219 39.9801325,66.3774834 C40.1622517,68.6589404 40.115894,70.9470199 40.0562914,73.2284768 C37.089404,73.3410596 34.115894,73.2549669 31.1490066,73.2847682 C24.4039735,73.5066225 17.5695364,71.410596 12.2086093,67.281457 C4.84437086,61.9006623 -0.470198675,53.0066225 0.0728476821,43.6953642 C0.185430464,41.3509934 -0.158940397,38.9602649 0.238410596,36.6490066 Z" id="Shape"></path>
                    </g>
                </g>
            </g>
        </g>
    </g>
</svg>