<?xml version="1.0" encoding="UTF-8"?>
<svg width="96px" height="100px" viewBox="0 0 96 100" version="1.1" xmlns="http://www.w3.org/2000/svg" xmlns:xlink="http://www.w3.org/1999/xlink">
    <!-- Generator: Sketch 47.1 (45422) - http://www.bohemiancoding.com/sketch -->
    <title>Shape</title>
    <desc>Created with Sketch.</desc>
    <defs></defs>
    <g id="Page-1" stroke="none" stroke-width="1" fill="none" fill-rule="evenodd">
        <g id="Главная-2-ой-вариант-шапки" transform="translate(-192.000000, -2142.000000)" fill-rule="nonzero" fill="#FFFFFF">
            <g id="Group-37" transform="translate(0.000000, 1661.000000)">
                <g id="Group-36" transform="translate(97.000000, 481.000000)">
                    <g id="Pict-2" transform="translate(95.000000, 0.000000)">
                        <g id="#79ba21ff">
                            <path d="M73.0155673,0.758996483 C75.2142465,0.720660538 77.3407639,-0.039293199 79.5484634,0.0125730797 C83.8263038,-0.00546736504 88.1041443,-0.00546736504 92.3819848,0.0215933021 C93.4959822,0.0396337469 94.8287201,0.0757146365 95.5999491,1.00930765 C96.1095917,1.48512439 95.920167,2.24056801 95.9675232,2.86296336 C96.0216445,4.18668099 95.5097469,5.42921663 95.2436503,6.70332304 C94.8174448,9.05985614 94.1251428,11.3555027 93.4305856,13.6443842 C92.8916273,15.583732 92.0392163,17.4148371 91.337894,19.2955535 C89.5699304,23.4877019 87.5809714,27.6843603 84.5704722,31.1436156 C83.4812803,32.5101793 82.292866,33.795561 80.993954,34.9636798 C78.9846995,36.6504614 76.9145584,38.339498 74.463313,39.3407427 C72.0210878,40.5359222 69.3646323,41.1628276 66.7284723,41.7491421 C64.4643965,41.8889555 62.1935555,41.7807129 59.9272246,41.8122836 C59.0838338,41.8077735 58.2269127,41.8235589 57.4128376,41.5800129 C55.926756,41.2101838 54.4113586,40.9621277 52.9455725,40.5223918 C51.9984491,40.2968863 51.1167224,39.8143044 50.1470485,39.6925314 C49.1029577,40.6373997 48.6564567,42.0220038 47.9280738,43.1923777 C46.1443248,46.611042 44.4846039,50.1221635 43.3638412,53.8227098 C42.6512437,56.0664901 41.9273708,58.3440962 41.7650068,60.7073945 C41.5146957,61.9409099 41.3365463,63.1879557 41.1403564,64.4304913 C41.0952553,65.8263707 41.0456441,67.2245052 41.0930003,68.6226397 C42.6692841,67.9393578 43.9411355,66.6968222 45.582816,66.1420785 C46.9786954,65.6437112 48.4106557,65.1994653 49.8786969,64.9829799 C51.7323526,64.9356237 53.5927734,64.9198384 55.4486842,64.9987653 C59.7580954,65.9143179 63.8262157,68.3091869 66.4578656,71.8857051 C67.6755956,73.3063901 68.2528899,75.1149447 69.1255964,76.7408398 C70.8168881,75.9921613 72.5172,75.1871065 74.3640905,74.9097347 C75.396906,74.8623785 76.450017,74.801492 77.4738122,74.9864066 C79.4808117,75.5028143 81.5554629,76.1252096 83.1497872,77.5098138 C84.1916228,78.411836 85.2221833,79.3612144 85.9663516,80.5315883 C86.7263053,81.7583385 87.2833041,83.1023516 87.7049995,84.4801906 C87.92825,85.2897556 87.8357927,86.1421666 87.8583432,86.9720271 C87.8312826,87.9597414 87.9237399,88.958731 87.7568657,89.9374252 C87.1615311,92.0459021 86.1941122,94.0957477 84.6899901,95.7148776 C82.7123064,97.6925614 80.1460531,99.2237441 77.3272336,99.5101362 C56.6416086,99.5056261 35.9537285,99.5281766 15.2681035,99.501116 C11.2360641,98.9215667 7.5152224,96.2109898 5.86677676,92.4608324 C4.60394562,90.0366476 4.67836246,87.1840023 5.00083541,84.5433322 C5.46086675,82.5656484 6.45309121,80.7300332 7.78808413,79.2033605 C9.4500601,77.0272319 12.0298437,75.8072468 14.6276678,75.1442604 C16.0641382,74.6368729 17.599831,75.0315077 19.0746374,74.8398279 C19.9721495,73.827308 20.6644516,72.6253633 21.7310929,71.7639321 C24.2770507,69.7073214 27.6212981,68.7714733 30.861813,68.8594205 C32.8259664,68.8774609 34.6006952,69.9035112 36.5422981,70.0275393 C36.6302452,68.2144746 36.3483633,66.365329 36.8016295,64.5838351 C37.1128271,62.1303346 37.0587058,59.6497734 36.943698,57.1872527 C36.2671813,53.0920717 34.6277559,48.9833604 31.5450949,46.0991443 C31.1820309,45.6413681 30.5731659,45.8691287 30.1695109,46.1329702 C28.5007698,47.1996115 26.6538793,47.9730955 24.7528674,48.5075437 C23.2487453,48.7037336 21.7694288,49.1637649 20.235991,48.9968908 C17.8591624,48.6766729 15.4688035,48.112909 13.3648366,46.9177295 C11.3758776,45.7586309 9.70037127,44.1440111 8.16918852,42.4436992 C6.59741477,40.7749581 5.39096003,38.7995294 4.33108389,36.7767445 C2.63302703,33.6219217 1.40402173,30.2483585 0.165996205,26.8950909 C-0.0504891326,26.211809 -0.0189183542,25.4721508 0.0577535361,24.7708285 C0.461408488,23.9973444 1.3138195,23.4471109 2.19329119,23.41103 C2.96226515,23.3275929 3.73800427,23.2824918 4.48442768,23.0682615 C5.93893854,22.682647 7.46561118,22.9712941 8.92914226,22.639801 C10.7354418,22.520283 12.5507615,22.560874 14.3593161,22.601465 C15.7303899,22.8540312 17.151075,22.7931447 18.4928331,23.21033 C21.1019324,23.6207501 23.5892587,24.6896465 25.7541121,26.1915135 C29.1051247,28.3947028 31.5450949,31.9216098 32.5102586,35.8070706 C32.9139136,37.3472736 33.3310989,38.9167923 33.2521719,40.5246469 C33.1123585,41.6138388 34.2015503,42.1640723 34.8081603,42.8744148 C36.4092498,44.6423784 37.9494528,46.5433903 38.8356896,48.7849156 C39.056685,49.3419143 39.46034,49.7929254 39.8594848,50.2304062 C41.447044,45.9277601 43.3480559,41.7220814 45.704589,37.7802442 C46.0924585,37.0924523 46.7058336,36.4204457 46.557,35.5680347 C46.3337495,33.8271318 45.8511676,32.1268199 45.5940912,30.3926821 C45.5489901,28.2142984 45.5264396,26.0336596 45.6008564,23.8552759 C46.0789282,21.1762699 46.8185864,18.5288346 48.0385715,16.0843543 C49.3667992,13.0896405 51.5790088,10.5865288 53.9671127,8.38559452 C57.2504736,5.6998233 61.0885782,3.67703843 65.174739,2.52921513 C66.636015,2.06016356 68.1130764,1.61366255 69.6239637,1.3317806 C70.771787,1.23932333 71.8587238,0.78605715 73.0155673,0.758996483 L73.0155673,0.758996483 Z M77.4264561,4.66249772 C76.1884305,4.92859428 74.9143241,4.88123812 73.6605132,5.01203134 C70.0614445,5.79002552 66.3992342,6.48007254 63.0301811,8.02929573 C60.387256,9.2650662 57.793942,10.757913 55.7779223,12.9047259 C54.5286215,14.244229 53.2860859,15.6423634 52.4945614,17.3133596 C51.6556807,19.1083839 50.8821966,20.9552744 50.5056023,22.9104076 C50.2755867,24.3333477 50.370299,25.7788383 50.3500035,27.2130537 C50.3657889,28.4104882 50.2462709,29.6282182 50.5552135,30.8008472 C51.9217772,29.3936925 53.1034264,27.8219187 54.3662575,26.3223067 C56.7137704,23.7335029 59.1559956,21.2123508 61.8598073,18.9866109 C62.7460441,18.13871 64.3764493,18.019192 65.1792491,19.0452423 C65.9662635,19.6338118 65.8129197,20.6891779 65.6843816,21.5415889 C65.0913019,22.4142954 64.1960449,23.007375 63.4473664,23.7312479 C61.444877,25.6367698 59.498764,27.6009233 57.5954971,29.6034126 C55.8771448,31.4638335 54.4158687,33.5429948 52.7110467,35.4146909 C53.7528824,36.2197458 55.0517944,36.5331985 56.3078604,36.8353759 C57.4511736,36.9977399 58.5471306,37.4374758 59.7129943,37.4397308 C61.8214713,37.484832 63.9344584,37.5231679 66.0406803,37.4104151 C70.0253636,36.7632142 73.8634682,35.0764326 76.9574045,32.4673332 C79.8393655,30.1671765 82.089911,27.1769728 84.0179836,24.0559759 C86.3970672,19.9314792 88.1898364,15.4890196 89.5631653,10.9360624 C89.9758405,9.40036953 90.3591999,7.86016656 90.8057009,6.33349392 C90.9996357,5.7404143 90.9951256,5.11125379 91.0334615,4.49562361 C88.3454353,4.23629222 85.6371135,4.41895172 82.940067,4.36708544 C81.1021967,4.39189105 79.2395208,4.28139333 77.4264561,4.66249772 L77.4264561,4.66249772 Z M5.13162863,27.7903479 C5.99756998,30.0431485 6.95822367,32.2598681 8.08349641,34.3976608 C9.98676333,37.9245678 12.4966402,41.3094062 16.0686483,43.284835 C17.0202817,43.7516315 18.0305467,44.1868572 19.1062082,44.2116628 C20.5111078,44.2567639 21.9317928,44.3221605 23.3254172,44.1146954 C24.5769731,43.7989876 25.8510795,43.3975877 26.8613444,42.558707 C25.0415145,41.1177265 22.8090095,40.3735582 20.641901,39.63841 C19.0656172,39.1400428 17.4284468,38.8852215 15.8070618,38.5988294 C14.7088498,38.2290003 14.8238576,36.9323433 14.9005295,36.0032604 C14.8486632,35.254582 15.6221473,34.8576922 16.2107168,34.6118911 C17.6516973,34.3390294 19.0453217,34.929854 20.4614966,35.0831977 C23.2510004,35.5274437 25.7721525,36.8646917 28.3361507,37.9764341 C28.1602564,36.0235559 27.1499915,34.2510822 26.0810951,32.6477377 C25.1159313,31.2315628 23.7471126,30.1581563 22.3151523,29.2471139 C20.4660067,28.0947804 18.3079185,27.6370042 16.217482,27.1341268 C13.378367,26.7755729 10.5189565,27.0484346 7.67082124,27.06422 C6.77556416,27.0777504 5.94795876,27.467875 5.13162863,27.7903479 L5.13162863,27.7903479 Z M49.0668768,69.6757506 C45.9819608,70.4559999 43.1248053,72.3750522 41.5755822,75.1961267 C41.2080081,76.0011816 40.9576969,77.0249768 40.0308691,77.3677453 C39.3543524,77.4489273 38.6440099,77.5030486 37.9810235,77.3316644 C37.4037293,76.9483049 36.9685036,76.4025815 36.4746464,75.9267647 C35.2546613,74.722565 33.6693572,73.8769192 31.9893408,73.545426 C30.6520928,73.4822845 29.2968044,73.4259081 27.9663216,73.5905271 C26.4125883,74.070854 24.7957134,74.7293302 23.762898,76.0462827 C22.8924465,77.0926285 22.4098646,78.4095809 21.5010772,79.424356 C21.1425234,79.8505615 20.5291483,79.8167356 20.0262709,79.8189907 C18.9460992,79.832521 17.9471096,79.3476841 16.8782132,79.2890526 C13.5700467,79.5213234 10.4355194,81.8530508 9.47486571,85.0665051 C9.26063543,86.0632396 9.31250171,87.0938001 9.32377699,88.1085751 C9.27642082,89.8449679 10.2686453,91.4032113 11.3488169,92.6840829 C12.3906526,93.6334613 13.6083826,94.4227308 14.9411205,94.9008025 C15.9942314,95.2616114 17.1262694,95.121798 18.2199713,95.1420935 C37.5412877,95.1398384 56.8648591,95.1375834 76.1861755,95.1420935 C77.2753673,95.1894497 78.3104378,94.7948149 79.2395208,94.2581117 C80.6105946,93.4327613 81.886956,92.3503347 82.615339,90.8958238 C84.0427892,88.3025099 83.7812027,84.8861006 81.9455875,82.5588832 C80.6173597,80.9284781 78.7276231,79.708493 76.6349315,79.3792549 C73.9198446,79.1244336 71.1032802,80.3218681 69.4818952,82.5340776 C68.6339943,83.9637829 66.2007893,83.7021964 65.5287827,82.2341552 C65.1206177,81.4787116 65.3303378,80.5879647 65.1972895,79.7738896 C64.6402908,77.2888183 63.5285484,74.8511032 61.6365568,73.098925 C59.6160269,71.0874154 56.9212355,69.729872 54.0911407,69.3713181 C52.4178895,69.3217069 50.6905169,69.1841485 49.0668768,69.6757506 Z" id="Shape"></path>
                        </g>
                    </g>
                </g>
            </g>
        </g>
    </g>
</svg>