<?xml version="1.0" encoding="UTF-8"?>
<svg width="100px" height="100px" viewBox="0 0 100 100" version="1.1" xmlns="http://www.w3.org/2000/svg" xmlns:xlink="http://www.w3.org/1999/xlink">
    <!-- Generator: Sketch 47.1 (45422) - http://www.bohemiancoding.com/sketch -->
    <title>#79ba21ff</title>
    <desc>Created with Sketch.</desc>
    <defs></defs>
    <g id="Page-1" stroke="none" stroke-width="1" fill="none" fill-rule="evenodd">
        <g id="Главная-2-ой-вариант-шапки" transform="translate(-190.000000, -1763.000000)" fill-rule="nonzero" fill="#FFFFFF">
            <g id="Group-37" transform="translate(0.000000, 1661.000000)">
                <g id="Group-32" transform="translate(96.000000, 102.000000)">
                    <g id="Pict-5" transform="translate(94.000000, 0.000000)">
                        <g id="#79ba21ff">
                            <path d="M20.4272758,0.649681529 C21.1808848,0.222929936 22.0941568,0.0382165605 22.9467568,0.257961783 C23.8121299,0.837579618 24.2464131,1.82165605 24.7605278,2.6910828 C25.5269099,4.09235669 26.4146358,5.47452229 26.7531212,7.05732484 C27.0149684,8.78025478 26.9542965,10.5859873 26.3699301,12.2388535 C25.9899324,13.4394904 25.134139,14.3949045 24.4028828,15.3949045 C25.38002,17.3789809 26.5806852,19.2420382 27.6057213,21.2006369 C29.071427,23.9458599 30.9267103,26.4617834 32.3700632,29.2197452 C33.9794656,32.0573248 35.6974387,34.8312102 37.2302029,37.7133758 C37.8145692,38.7101911 38.293558,39.7993631 39.1046457,40.6464968 C39.9700188,40.8566879 40.6597627,40.0191083 41.403792,39.6942675 C42.4064752,38.9617834 43.8338618,38.6178344 44.9642754,39.2515924 C45.6763721,39.933121 46.1138485,40.8407643 46.6567025,41.6528662 C48.5726577,41.343949 49.9553387,39.2802548 52.0213771,39.7038217 C52.9250693,40.0573248 53.4359907,40.9585987 53.9277525,41.7420382 C56.0895886,45.5191083 58.3568023,49.2324841 60.4994789,53.0191083 C61.1764497,54.2515924 61.7608161,55.5382166 62.5846768,56.6847134 C64.6283623,55.7038217 66.6816277,54.5828025 68.9743874,54.3312102 C71.388491,54.2547771 73.8888125,54.1019108 76.1815722,55.0191083 C78.586096,55.8535032 80.6521344,57.4076433 82.4946446,59.1242038 C85.103537,61.8184713 86.2115977,65.5859873 86.4351258,69.2515924 C88.3415013,69.7420382 90.2798093,70.2738854 91.9690431,71.3216561 C95.4465018,73.6687898 98.0522009,77.3280255 98.8632886,81.4649682 C99.6073179,84.5955414 99.0229515,87.8980892 97.7488413,90.8152866 C97.1389289,92.1528662 96.2639761,93.3407643 95.4912075,94.5859873 C96.4140592,94.7515924 97.5412795,94.566879 98.2182504,95.3598726 C99.645637,96.6305732 98.7834571,99.6242038 96.7429649,99.5828025 C69.8110212,99.6050955 42.8790775,99.5764331 15.9439406,99.5955414 C14.8837787,99.7133758 13.8300033,99.1656051 13.3126954,98.2388535 C13.1849651,97.2770701 12.9231179,95.9904459 13.8619359,95.343949 C15.0689877,94.2866242 16.7837676,94.8471338 18.233507,94.6401274 C17.3234283,92.7165605 16.3526777,90.7197452 16.4261226,88.5350318 C16.0908305,84.1146497 18.5304801,79.5732484 22.5092804,77.5509554 C23.8600288,76.8121019 25.405566,76.6178344 26.8489189,76.133758 C26.8265661,73.5955414 27.3726134,70.9840764 28.8159663,68.8598726 C29.9048675,67.2515924 31.5877148,66.2133758 33.0406475,64.9745223 C31.6196474,61.8152866 29.3875596,59.1178344 27.7717707,56.066879 C27.2736224,55.0987261 27.1682448,53.7866242 27.774964,52.8535032 C28.9628562,51.8121019 30.5435192,51.3503185 31.7665373,50.343949 C30.9746092,49.0573248 30.0038585,47.6210191 30.5626788,46.0382166 C31.6547733,44.7070064 33.4493846,44.2802548 34.7682005,43.2197452 C33.5994678,40.8853503 32.1816609,38.6847134 30.9011642,36.410828 C27.8835348,31.7802548 25.4662379,26.7961783 22.5092804,22.1305732 C21.6375208,20.7452229 20.874332,19.2961783 19.9802195,17.9235669 C18.5560262,17.8789809 17.1030935,18.1815287 15.7044462,17.7898089 C14.072691,17.4076433 12.3834571,16.8280255 11.2274975,15.5573248 C10.0332188,14.2515924 9.2029715,12.6656051 8.31843885,11.1464968 C7.65104779,10.0127389 7.45306575,8.21656051 8.71120967,7.4044586 C10.1928817,6.39808917 11.8182504,5.61464968 13.3893336,4.75159236 C15.8353698,3.55414013 18.0323317,1.93312102 20.4272758,0.649681529 L20.4272758,0.649681529 Z M13.8300033,10.0573248 C14.0247921,11.3853503 15.1615922,12.4076433 16.2856192,13.0286624 C18.4474554,13.9808917 20.9254241,12.3566879 21.7844107,10.3598726 C22.1197028,8.89808917 22.1197028,7.0955414 20.8104668,6.09235669 C18.4251026,7.30254777 16.097217,8.64012739 13.8300033,10.0573248 L13.8300033,10.0573248 Z M40.6821155,45.6847134 C39.3026278,46.6273885 37.7730569,47.3375796 36.4734006,48.3949045 C37.096086,49.7611465 38.0125513,51.4426752 37.0545737,52.8821656 C36.0295376,53.8630573 34.6468566,54.3630573 33.5132498,55.2101911 C33.6218206,56.3343949 34.3658499,57.2324841 34.8895443,58.1942675 C36.5915512,60.9745223 38.0987693,63.8726115 39.8901874,66.6019108 C40.9918616,68.2993631 41.8093358,70.2547771 43.428318,71.544586 C44.6449496,70.9203822 45.6859519,70.0191083 46.8898104,69.3789809 C48.7291274,68.3980892 50.7472669,67.8025478 52.7749861,67.3535032 C54.7132942,66.955414 56.6995011,67.1974522 58.6601619,67.0636943 C59.6404923,65.4076433 59.6468788,63.3694268 59.3052001,61.5286624 C58.6441956,58.9968153 56.9485752,56.933121 55.6648852,54.6974522 C54.4706065,52.5955414 53.2124626,50.5318471 52.0117973,48.4363057 C51.440204,47.4681529 50.9867613,46.4076433 50.1756736,45.6082803 C48.4353476,46.3917197 46.822752,48.1687898 44.7471338,47.5700637 C43.7731899,46.8025478 43.3708393,45.5828025 42.687482,44.589172 C41.9785786,44.8789809 41.3111875,45.2515924 40.6821155,45.6847134 L40.6821155,45.6847134 Z M64.3920612,61.633758 C64.2898769,63.7356688 64.4814724,65.8821656 63.6703847,67.8853503 C64.673068,68.4458599 65.7523894,68.8535032 66.7646524,69.3949045 C69.2234616,70.656051 71.1362235,72.6942675 72.8669697,74.7993631 C75.0479654,77.5923567 76.2454374,81.1656051 76.0251026,84.7133758 C75.8973722,86.8853503 72.5636102,87.4235669 71.4523561,85.7484076 C70.7626123,84.3949045 71.2703404,82.7929936 70.7338729,81.388535 C69.759929,77.6273885 66.7518794,74.7324841 63.2329083,73.2547771 C57.7085708,70.6369427 50.5301253,71.7165605 46.2128396,76.0859873 C47.7072846,76.5573248 49.2592083,76.9840764 50.526932,77.9458599 C53.3369997,79.8566879 55.3551392,83.1847134 55.0964852,86.6464968 C55.1028717,87.2834395 55.03262,87.9936306 54.4801863,88.410828 C53.3114536,89.6942675 50.884577,88.9585987 50.5397051,87.2866242 C50.2363455,85.9585987 50.2171859,84.4585987 49.1889566,83.4299363 C47.7871161,81.977707 45.8328418,80.8184713 43.7412573,81.0031847 C41.5921943,80.8821656 39.663466,82.1910828 38.2201131,83.6528662 C37.1375984,84.7484076 37.2781018,86.3471338 36.8533984,87.7133758 C36.2370995,89.5732484 33.1715711,89.4426752 32.564852,87.6464968 C31.9070407,84.9012739 33.1619914,82.111465 34.886351,80.0159236 C36.0039916,78.6242038 37.5814614,77.7261146 39.1525446,76.9267516 C39.762457,76.6910828 39.9795986,76.0700637 40.2158998,75.522293 C39.2898548,74.5254777 38.2169198,73.6496815 37.5048232,72.4808917 C36.8789445,71.4808917 36.2913849,70.4617834 35.6080275,69.5031847 C34.8160993,69.4904459 34.3019847,70.1401274 33.8293824,70.6783439 C32.2870385,72.4872611 31.3514137,74.9490446 31.9262002,77.3248408 C32.2359463,78.5031847 32.3413239,80.0063694 31.3130946,80.8757962 C29.7931034,81.9458599 27.8995011,80.6242038 26.2837122,81.343949 C25.207584,81.7707006 24.2304468,82.4203822 23.3459142,83.1592357 C21.4970174,84.7420382 20.714669,87.4171975 21.4267657,89.7420382 C22.3336512,92.6464968 25.3129615,94.9363057 28.4136157,94.7006369 C46.9377093,94.6719745 65.4618029,94.6910828 83.9858964,94.6910828 C86.2403371,94.7261146 88.4404923,93.866242 90.2223306,92.522293 C92.6045016,90.9203822 93.8754186,88.111465 94.3097017,85.3566879 C94.5683557,82.5 93.5624792,79.5286624 91.6273645,77.4076433 C89.5932587,75.4171975 86.8598292,74.0700637 83.9858964,73.9904459 C83.0822042,73.9840764 82.0412019,73.7866242 81.5813727,72.9171975 C81.3322985,71.3566879 81.709103,69.7707006 81.4823816,68.2101911 C80.8117973,65.2929936 79.2949994,62.4171975 76.7084599,60.7643312 C73.068145,58.1847134 67.6076727,58.5509554 64.3920612,61.633758 Z" id="Shape"></path>
                            <path d="M70.9797539,45.2961783 C72.6594079,45.2738854 74.4188934,45.2452229 76.0027498,45.8726115 C77.1746757,46.6305732 76.8936689,48.3757962 76.475352,49.4968153 C75.7153565,50.6082803 74.1857856,50.4203822 73.0298259,50.2165605 C71.7269764,49.955414 70.0121965,50.4840764 69.1148908,49.2324841 C67.9908637,47.7611465 68.9839672,45.2133758 70.9797539,45.2961783 Z" id="Shape"></path>
                            <path d="M82.2679233,48.9713376 C83.5675796,48.4904459 84.7235392,49.5095541 85.7358022,50.1751592 C89.9381306,53.3726115 93.3485309,57.8312102 94.5460029,63.0382166 C94.8429759,64.1146497 95.0856636,65.611465 93.95525,66.3025478 C92.8503825,66.866242 91.1483757,67.0732484 90.2957756,65.9872611 C89.5964519,65.0350318 89.4942677,63.8184713 89.0855305,62.7388535 C88.1435192,59.8535032 86.2467236,57.3949045 84.1072403,55.2898089 C83.1269099,54.3343949 81.8879255,53.6815287 80.968267,52.6687898 C80.1891119,51.3726115 80.8788557,49.5382166 82.2679233,48.9713376 Z" id="Shape"></path>
                            <path d="M44.5970507,54.388535 C45.379399,54.2356688 46.4076283,54.0573248 46.9856082,54.7611465 C48.1894667,56.066879 48.9207229,57.7197452 49.8308016,59.2261146 C50.5780242,60.6656051 51.6413793,62.022293 51.8393613,63.6783439 C51.5583546,65.9808917 48.1735004,66.455414 47.0111542,64.5859873 C45.9861182,62.9203822 45.1399046,61.1496815 44.1372214,59.4713376 C43.6358798,58.5095541 42.9365562,57.5636943 42.9014303,56.4458599 C43.0674798,55.5350318 43.7955427,54.7993631 44.5970507,54.388535 Z" id="Shape"></path>
                            <path d="M2.00536645,94.933121 C3.24435081,94.6942675 4.51526777,94.8121019 5.77021843,94.8057325 C6.77928817,94.8089172 8.05020512,95.1178344 8.38869054,96.2038217 C8.51961415,97.1433121 8.67289056,98.2802548 8.0054995,99.0605096 C7.39239384,99.8184713 6.30668589,99.6942675 5.43811953,99.7547771 C4.01711941,99.7133758 2.54183391,99.9140127 1.17192593,99.455414 C-0.619492183,98.4171975 -0.166049451,95.1847134 2.00536645,94.933121 Z" id="Shape"></path>
                        </g>
                    </g>
                </g>
            </g>
        </g>
    </g>
</svg>