<?xml version="1.0" encoding="UTF-8"?>
<svg width="100px" height="100px" viewBox="0 0 100 100" version="1.1" xmlns="http://www.w3.org/2000/svg" xmlns:xlink="http://www.w3.org/1999/xlink">
    <!-- Generator: Sketch 47.1 (45422) - http://www.bohemiancoding.com/sketch -->
    <title>Shape</title>
    <desc>Created with Sketch.</desc>
    <defs></defs>
    <g id="Page-1" stroke="none" stroke-width="1" fill="none" fill-rule="evenodd">
        <g id="Главная-2-ой-вариант-шапки" transform="translate(-671.000000, -1751.000000)" fill-rule="nonzero" fill="#FFFFFF">
            <g id="Group-37" transform="translate(0.000000, 1661.000000)">
                <g id="Group-31" transform="translate(577.000000, 90.000000)">
                    <g id="Group-29" transform="translate(94.000000, 0.000000)">
                        <path d="M2.352,1.64266667 C2.59733333,0.690666667 3.608,0.218666667 4.51466667,0.149333333 C6.58933333,0.0666666667 8.65866667,0.314666667 10.7013333,0.661333333 C13.072,0.864 15.5013333,0.925333333 17.7733333,1.69866667 C19.2266667,2.256 19.0506667,4.08533333 19.3573333,5.344 C19.984,7.72533333 20.216,10.184 20.664,12.6 C21.0666667,14.1706667 21.32,15.776 21.5733333,17.3786667 C21.8506667,19.88 22.6,22.3013333 22.9093333,24.7973333 C23.216,27.496 23.9813333,30.1173333 24.3253333,32.808 C24.528,33.96 24.672,35.1253333 24.9306667,36.2666667 C25.616,38.8373333 25.6826667,41.5306667 26.3893333,44.096 C26.656,45.208 26.7493333,46.3546667 26.984,47.4773333 C27.2266667,48.6506667 27.1813333,49.8853333 27.648,51.0053333 C29.0986667,51.2186667 30.5946667,51.136 32.008,51.576 C33.44,51.9946667 34.9093333,52.2693333 36.352,52.656 C37.688,53.0826667 39.04,53.4773333 40.4213333,53.736 C42.064,54.0746667 43.6106667,54.8533333 45.296,54.9733333 C45.824,54.9013333 45.9626667,54.328 46.216,53.9493333 C47.3546667,51.816 49.08,50.0826667 50.832,48.448 C52.5066667,46.88 54.4986667,45.5173333 56.7946667,45.0986667 C58.032,44.8613333 59.256,44.4746667 60.528,44.4586667 C62.0666667,44.432 63.544,44.944 65.0693333,45.0533333 C68.0533333,45.264 70.7733333,46.7413333 73.1253333,48.504 C75.816,50.8533333 77.928,53.9573333 78.7973333,57.448 C79.056,58.56 79.552,59.632 79.5466667,60.7946667 C79.5626667,62.0373333 79.5173333,63.28 79.5733333,64.5226667 C82.3333333,65.4453333 85.1893333,66.0133333 87.9653333,66.872 C90.904,67.6613333 94.128,68.1173333 96.5226667,70.152 C98.3573333,71.6906667 99.232,74.0106667 99.792,76.2666667 C99.9493333,78.2986667 100.061333,80.3653333 99.752,82.3893333 C98.872,85.2026667 96.536,87.352 93.8986667,88.5413333 C92.552,89.056 91.088,89.1066667 89.6906667,89.4106667 C89.064,92.3146667 87.448,94.9786667 85.1493333,96.8586667 C83.048,98.44 80.5813333,99.8746667 77.8693333,99.8186667 C76.3146667,99.816 74.7306667,99.9306667 73.2053333,99.5626667 C69.7733333,98.456 66.6293333,96.2133333 64.832,93.0426667 C64.1733333,91.9013333 63.8,90.6346667 63.3813333,89.3946667 C62.176,89.1706667 60.9493333,89.256 59.7333333,89.2506667 C52.8,89.2506667 45.8666667,89.2533333 38.9333333,89.2506667 C37.752,89.2586667 36.5493333,89.1466667 35.3946667,89.464 C34.7546667,93.48 31.84,96.8853333 28.2053333,98.576 C26.9733333,99.1866667 25.6826667,99.7813333 24.2746667,99.7866667 C21.9653333,99.824 19.488,100.096 17.3813333,98.936 C14.8186667,97.8746667 12.64,96 11.1013333,93.704 C10.2853333,92.3573333 9.84533333,90.8346667 9.24533333,89.3893333 C6.896,89.0613333 4.51466667,89.376 2.15466667,89.2213333 C1.32533333,89.168 0.552,88.5733333 0.232,87.816 C0.024,87.0986667 0.0773333333,86.3386667 0.064,85.6026667 C0.104,81.8666667 -0.0106666667,78.128 0.178666667,74.3946667 C0.370666667,72.5786667 0.965333333,70.8346667 1.40266667,69.0666667 C2.76,64.872 5.408,61.2 8.568,58.168 C11.3493333,55.68 14.6693333,53.8613333 18.12,52.4826667 C19.232,52.128 20.384,51.9093333 21.472,51.4746667 C21.472,49.2 20.6106667,47.048 20.3706667,44.8026667 C20.0453333,43.1546667 19.9573333,41.464 19.4773333,39.848 C18.96,37.4666667 18.8133333,35.0133333 18.176,32.6586667 C17.64,29.832 17.3466667,26.9626667 16.7386667,24.1466667 C16.0666667,21.3546667 15.9386667,18.456 15.1653333,15.6853333 C14.6906667,12.8746667 14.416,10.0106667 13.576,7.27466667 L13.424,7.10133333 C10.264,6.08 6.872,6.32533333 3.65066667,5.62666667 C2.09333333,4.99466667 1.92533333,3.05333333 2.352,1.64266667 L2.352,1.64266667 Z M59.6746667,50.6853333 C58.1386667,50.9306667 56.7973333,51.7653333 55.512,52.592 C53.9893333,53.6986667 52.5013333,54.9253333 51.488,56.5333333 C52.656,57.504 54.24,57.5173333 55.6293333,57.96 C58.1706667,58.8026667 60.8106667,59.2746667 63.3493333,60.1253333 C65.5493333,60.568 67.648,61.3706667 69.84,61.8426667 C71.0613333,62.1226667 72.2266667,62.5946667 73.4533333,62.8586667 C73.7653333,58.1413333 70.6853333,53.504 66.384,51.664 C64.3226667,50.624 61.9386667,50.384 59.6746667,50.6853333 L59.6746667,50.6853333 Z M23.4373333,57.208 C22.192,57.44 20.9386667,57.6986667 19.792,58.2506667 C14.712,60.464 10.136,64.2426667 7.73866667,69.32 C6.56,71.5466667 6.304,74.0933333 5.76533333,76.5146667 C5.67733333,78.8453333 5.648,81.1893333 5.78933333,83.52 C6.92266667,83.6773333 8.06933333,83.664 9.21333333,83.592 C9.96266667,81.9466667 10.328,80.096 11.4746667,78.656 C13.8853333,75.3093333 17.9386667,72.9573333 22.1333333,73.1893333 C23.4986667,73.2026667 24.904,73.1146667 26.2133333,73.5866667 C27.8693333,74.0453333 29.376,74.9013333 30.7786667,75.88 C33.1146667,77.6053333 34.7413333,80.2373333 35.3093333,83.0826667 C35.376,83.8106667 36.28,83.5706667 36.7786667,83.64 C45.6346667,83.592 54.4933333,83.696 63.3466667,83.5866667 C63.664,82.7253333 63.92,81.8426667 64.2533333,80.9893333 C65.7626667,77.4266667 68.992,74.6533333 72.7013333,73.592 C74.6293333,72.9733333 76.6853333,73.2213333 78.6773333,73.2266667 C83.36,73.832 87.624,77.2 89.1493333,81.696 C89.4213333,82.3306667 89.304,83.392 90.1413333,83.5893333 C91.24,83.448 92.3893333,83.08 93.0986667,82.1706667 C94.0773333,80.8906667 94.1386667,79.1786667 93.7546667,77.664 C93.584,75.976 92.6106667,74.12 90.84,73.7146667 C86.6106667,72.4373333 82.3093333,71.44 78.0826667,70.1626667 C75.736,69.704 73.5173333,68.7946667 71.1733333,68.3333333 C67.52,67.2613333 63.8346667,66.32 60.1706667,65.296 C58.176,64.5866667 56.0506667,64.352 54.064,63.6186667 C52.624,63.136 51.1066667,62.9333333 49.6773333,62.4266667 C47.9786667,61.8533333 46.192,61.6026667 44.5013333,61.008 C42.8373333,60.4586667 41.0933333,60.2133333 39.4426667,59.624 C37.4906667,59.032 35.472,58.6773333 33.5493333,57.992 C30.2613333,57.2106667 26.7973333,56.368 23.4373333,57.208 L23.4373333,57.208 Z M20.9253333,79.1146667 C18.6133333,79.624 16.7333333,81.416 15.704,83.496 C14.7306667,85.232 14.6826667,87.4693333 15.576,89.248 C16.5333333,91.5466667 18.6266667,93.2826667 20.9786667,94.024 C23.0693333,94.616 25.1813333,93.624 26.9093333,92.5173333 C28.5466667,91.048 29.8906667,88.9546667 29.76,86.672 C30.064,82.1893333 25.3973333,77.8346667 20.9253333,79.1146667 L20.9253333,79.1146667 Z M74.8133333,79.1253333 C72.4773333,79.7866667 70.544,81.6026667 69.592,83.8213333 C68.9493333,85.0933333 69.064,86.5706667 69.1786667,87.9466667 C69.7573333,90.3733333 71.5253333,92.4453333 73.7866667,93.488 C75.6533333,94.568 78.0613333,94.4 79.84,93.2186667 C81.688,92.328 83.0346667,90.6373333 83.7306667,88.736 C84.0586667,87.4 84.0106667,85.9893333 83.824,84.6373333 C82.7893333,80.92 78.6773333,78.0213333 74.8133333,79.1253333 Z" id="Shape"></path>
                    </g>
                </g>
            </g>
        </g>
    </g>
</svg>