<?xml version="1.0" encoding="UTF-8"?>
<svg width="92px" height="100px" viewBox="0 0 92 100" version="1.1" xmlns="http://www.w3.org/2000/svg" xmlns:xlink="http://www.w3.org/1999/xlink">
    <!-- Generator: Sketch 47.1 (45422) - http://www.bohemiancoding.com/sketch -->
    <title>Shape</title>
    <desc>Created with Sketch.</desc>
    <defs></defs>
    <g id="Page-1" stroke="none" stroke-width="1" fill="none" fill-rule="evenodd">
        <g id="Главная-2-ой-вариант-шапки" transform="translate(-1154.000000, -1762.000000)" fill-rule="nonzero" fill="#FFFFFF">
            <g id="Group-37" transform="translate(0.000000, 1661.000000)">
                <g id="Group-33" transform="translate(1055.000000, 101.000000)">
                    <g id="Pict-3" transform="translate(99.000000, 0.000000)">
                        <g id="#79ba21ff">
                            <path d="M44.2321302,0.38200742 C45.5018536,-0.33121249 47.0786133,0.0142034304 48.1500423,0.92251937 C53.395247,4.87561269 58.7236074,8.71356736 64.0871491,12.4939527 C68.6447203,16.2007773 73.694829,19.2423564 78.2715899,22.9203962 C82.3142355,25.8212503 86.3472862,28.7348976 90.402725,31.6165619 C91.2278852,32.1634704 91.6596551,33.1389506 91.6276722,34.1112324 C91.6212756,55.120836 91.6308705,76.1272412 91.6212756,97.1336465 C91.6724483,98.2562482 90.9176506,99.4364193 89.7726608,99.6475068 C88.5125323,99.8713875 87.2268175,99.7274642 85.9570942,99.7562488 C58.7715819,99.7594471 31.5860696,99.746654 4.40055731,99.7626454 C3.20119647,99.6986795 1.75556688,100.050492 0.799276505,99.1229863 C0.108444663,98.5696812 -0.0162888639,97.6453738 0.00290090948,96.8170152 C0.0156940917,75.9097571 0.00609920505,55.0056973 0.00609920505,34.0984392 C-0.073858184,32.9406562 0.642560022,31.9363914 1.55407426,31.2999306 C4.02635673,29.486497 6.48584601,27.6538737 9.04448246,25.958777 C11.4432041,24.3404395 13.6468298,22.4566434 15.9943787,20.7679433 C22.9538699,16.0440608 29.5199707,10.7700714 36.4858584,6.05578375 C39.0956676,4.20716891 41.4656046,2.00354327 44.2321302,0.38200742 L44.2321302,0.38200742 Z M45.159636,7.65173323 C41.9069694,9.67625432 38.9197613,12.0973641 35.843001,14.3777488 C32.3280742,16.8308415 28.8931047,19.3926762 25.3909711,21.8649587 C22.2342534,24.2572838 19.0647425,26.6432123 15.7641014,28.837243 C12.9112218,30.7530221 10.3589819,33.0813813 7.45812787,34.9267978 C6.77049432,35.4385251 5.7758244,35.9598473 5.90375622,36.9769052 C5.90695452,55.7604951 5.87816986,74.5504815 5.9165494,93.3372696 C6.5690017,93.4747964 7.23424718,93.5483572 7.90269095,93.5227708 C19.4581328,93.4396151 31.0199713,93.6123231 42.5722148,93.4396151 C42.6233876,86.8991007 42.6009995,80.3585863 42.585008,73.8212701 C41.2801034,73.5941911 39.9560091,73.7860889 38.6479062,73.6485622 C35.193747,73.2295854 31.666027,72.2764934 28.9154928,70.0504797 C26.3056836,67.8596472 23.7214608,65.4545289 22.2438483,62.3233976 C19.7683675,57.6570844 19.3142095,52.0472739 20.7534425,46.9875704 C20.9613317,46.31273 21.3675153,45.6410879 22.0583471,45.3756294 C24.8792438,44.2466311 27.9719956,44.3873561 30.9496088,44.4928998 C35.5967322,45.0270152 40.1447085,47.0355448 43.3813836,50.4641176 C44.2193371,51.3628387 44.8781859,52.4566558 45.9464167,53.118703 C46.6500417,52.2711546 47.3184855,51.4012182 48.0444986,50.5728597 C50.9997237,47.1282954 55.4389579,45.3596379 59.8078296,44.5632623 C62.0466365,44.3841578 64.323823,44.3361833 66.553035,44.6176333 C67.9826731,44.9790407 69.853676,45.0589981 70.589284,46.5717919 C71.6990925,49.2071875 71.4496255,52.1272313 71.4464272,54.9193434 C71.4624187,56.192265 71.0850198,57.4204105 70.7332073,58.6293662 C69.6553817,61.7956788 68.0434407,64.8436545 65.6671071,67.229583 C63.8025008,69.2828887 61.6020734,71.0803308 59.0018592,72.110182 C55.8387448,73.5142338 52.3366112,73.830865 48.9176332,73.7285196 C48.6649679,77.8927004 48.8760554,82.076071 48.8056929,86.2498467 C48.8600639,88.6485684 48.6809594,91.0600832 48.9144349,93.4556066 C56.5711545,93.5835384 64.2278741,93.4715981 71.8845937,93.5067793 C76.400587,93.4460117 80.9229769,93.6315128 85.4325737,93.4204253 C85.5253243,91.8820452 85.4773498,90.3468633 85.4837464,88.8084831 C85.4837464,71.5344888 85.4805481,54.2636928 85.4837464,36.9896984 C85.6596527,35.9406575 84.6202066,35.4033438 83.9261765,34.8596336 C81.1692457,32.9470528 78.5402467,30.8617641 75.7993074,28.9299936 C72.764125,26.6112293 69.485872,24.6250878 66.5274486,22.2007797 C63.9688122,20.1378791 61.1383206,18.4427825 58.5221148,16.4566409 C54.585013,13.5557868 50.6639026,10.6293464 46.6660332,7.81164801 C46.231065,7.4598355 45.6393803,7.22635992 45.159636,7.65173323 L45.159636,7.65173323 Z M26.3760461,50.6848 C25.7843614,52.2135853 26.0338285,53.9022854 26.4304171,55.4470621 C27.2811638,58.8308588 29.0466229,62.0867237 31.861123,64.23278 C34.3813799,66.3372585 37.6660295,67.251971 40.8803165,67.5430159 C41.459208,67.5909904 41.9933233,67.3447216 42.5242404,67.1560222 C42.6457756,65.2402431 42.6489739,63.3148692 42.5498268,61.4022885 C41.8046239,58.140027 39.7737062,55.1911985 36.9879908,53.336187 C35.4496106,52.351112 33.7641089,51.6282972 32.0434259,51.0302159 C30.2363889,50.3521773 28.2566439,50.5088938 26.3760461,50.6848 L26.3760461,50.6848 Z M60.3291518,50.7583608 C57.3067625,51.615504 54.3803221,53.0707285 52.1575066,55.3255269 C50.4560134,57.0270201 49.2982304,59.2562321 48.8568656,61.6165743 C48.7385287,63.4364044 48.796098,65.2658295 48.850469,67.0920563 C49.3462048,67.3447216 49.8707253,67.5909904 50.4464185,67.5462142 C54.0700874,67.3511182 57.7353341,66.1165761 60.3611348,63.529155 C63.1244621,61.2231839 64.85474,57.8138008 65.340881,54.2732876 C65.3984503,53.0579353 65.5967446,51.756229 65.0562327,50.6176358 C63.4826712,50.5792563 61.8771269,50.4065483 60.3291518,50.7583608 Z" id="Shape"></path>
                        </g>
                    </g>
                </g>
            </g>
        </g>
    </g>
</svg>