<svg xmlns="http://www.w3.org/2000/svg" xmlns:xlink="http://www.w3.org/1999/xlink" viewBox="0 0 119 119">
  <defs>
    <circle id="adfsgdghfgh44f" cx="59.5" cy="59.5" r="59.5"/>
  </defs>
  <g fill="none" fill-rule="evenodd">
    <use fill="#06B0DC" xlink:href="#adfsgdghfgh44f"/>
    <circle cx="59.5" cy="59.5" r="56.5" stroke="#FFF" stroke-opacity=".649" stroke-width="6"/>
    <g fill="#FFF" fill-rule="nonzero">
      <path d="M57.075 40.126c1.3-.158 2.625-.168 3.924-.001.255-.015.312.254.407.43 1.108.192 2.228.459 3.2 1.048a6.325 6.325 0 0 1 2.666 3.148c.652 1.573.76 3.296.841 4.978.077 1.567.075 3.154-.255 4.694-.833 3.672-3.657 6.903-7.297 7.983-.827.268-1.725.357-2.572.131-4.235-1.026-7.49-4.955-7.958-9.25-.202-1.895-.088-3.806.088-5.697.208-1.946.87-3.97 2.39-5.288 1.144-1.039 2.665-1.51 4.164-1.746.09-.179.147-.447.402-.43zM55.732 42.1c.159 1.6.333 3.2.503 4.8.179-.003.358-.001.538.008.006-1.68.016-3.36-.004-5.04-.35.056-.696.133-1.037.232zm5.576-.23c-.017 1.68-.013 3.358-.003 5.038.179-.01.358-.011.538-.008.166-1.6.348-3.198.503-4.8a8.697 8.697 0 0 0-1.038-.23zm-10.004 7.64c-.093.777-.06 1.561-.044 2.342.031 1.455.262 2.94.934 4.246 1.059 2.079 2.741 3.95 4.963 4.79.788.28 1.637.59 2.481.387 1.035-.233 2.042-.632 2.913-1.244 1.528-1.042 2.68-2.564 3.47-4.222.59-1.266.77-2.678.8-4.061.011-.749.042-1.5-.047-2.245-.265.721-.39 1.492-.727 2.186-.12.242-.313.488-.603.516a45.46 45.46 0 0 1-12.81 0c-.265-.025-.451-.237-.57-.457-.365-.705-.486-1.5-.76-2.238z"/>
      <path d="M52.702 62.027c.296-.15.583-.36.924-.39.283.037.51.232.743.38a8.288 8.288 0 0 0 2.843 1.316.897.897 0 0 1 .67.576c.39 1.003.741 2.022 1.141 3.023.474-1.002.776-2.075 1.208-3.094.115-.303.418-.46.718-.529a8.143 8.143 0 0 0 2.636-1.205c.23-.154.45-.33.709-.432.229-.102.452.059.652.153 2.152 1.176 4.337 2.288 6.453 3.528.758.464 1.557.913 2.13 1.61.873 1.04 1.29 2.36 1.66 3.64a29.11 29.11 0 0 1 .779 3.388.747.747 0 0 1-.075.53c-.352.68-.818 1.316-1.434 1.781-1.68 1.297-3.716 2.018-5.746 2.566-2.067.587-4.213.829-6.354.942-2.902.147-5.818.121-8.712-.158-2.353-.22-4.668-.788-6.88-1.617-1.138-.453-2.241-1.019-3.206-1.777-.587-.462-1.035-1.077-1.375-1.735-.165-.28-.07-.61-.026-.908.384-2.054.979-4.089 1.962-5.94.387-.721.954-1.346 1.664-1.758 2.251-1.39 4.607-2.6 6.916-3.89zm-3.318 2.726c.458 3.256.705 6.553.54 9.84-.025 1.109-.152 2.21-.23 3.316 3.663.897 7.463 1.048 11.217.943 2.511-.075 5.025-.346 7.468-.94-.138-1.725-.273-3.453-.277-5.185a54.072 54.072 0 0 1 .598-7.986 8.7 8.7 0 0 0-1.043-.563 20.104 20.104 0 0 0-1.065 3.742c-.255 1.402-.336 2.826-.511 4.239-4.696-.002-9.391-.01-14.086.002-.122-.988-.193-1.98-.32-2.967a20.022 20.022 0 0 0-1.254-5.015c-.355.176-.697.373-1.037.574z"/>
    </g>
  </g>
</svg>
