<svg xmlns="http://www.w3.org/2000/svg" xmlns:xlink="http://www.w3.org/1999/xlink" viewBox="0 0 119 119">
  <defs>
    <circle id="adcxvcjee" cx="59.5" cy="59.5" r="59.5"/>
  </defs>
  <g fill="none" fill-rule="evenodd">
    <use fill="#06B0DC" xlink:href="#adcxvcjee"/>
    <circle cx="59.5" cy="59.5" r="56.5" stroke="#FFF" stroke-opacity=".649" stroke-width="6"/>
    <path fill="#FFF" fill-rule="nonzero" d="M36.13 41.582c.052-.844.843-1.53 1.68-1.516 1.209-.018 2.418.002 3.627-.008.538-.002 1.127.073 1.533.462.288.235.42.593.514.941 1.542 5.789 3.09 11.576 4.633 17.364.114.403.184.82.35 1.206.153.126.366.135.55.188 1.625.333 3.24.71 4.865 1.043.014-.426.01-.852-.009-1.278-.67-.017-1.409-.168-1.83-.743-.433-.558-.3-1.305-.322-1.96.028-.951-.05-1.907.042-2.856.155-1.329 1.143-2.456 2.36-2.953a4.288 4.288 0 0 1 1.997-.189c4.722.735 9.446 1.464 14.169 2.195.649.11 1.318.254 1.867.64.64.455 1.172 1.094 1.415 1.85.371 1.046.2 2.17.208 3.255.018.596-.135 1.235-.595 1.646-.39.312-.913.336-1.386.417.001 1.3.015 2.6.046 3.9 1.051.26 2.116.461 3.174.7.914.21 1.873.335 2.708.792 1.128.621 2.048 1.672 2.383 2.93.09.252.083.591.37.712a5.256 5.256 0 0 1 2.384 2.568 5.317 5.317 0 0 1-.007 3.947c-.513 1.21-1.554 2.156-2.748 2.676-1.26.48-2.711.518-3.962-.014-1.278-.577-2.386-1.643-2.785-3.015-.11-.25-.107-.732-.498-.651-5.4.006-10.8-.013-16.2.01-.566 1.216-1.413 2.327-2.574 3.034-1.54 1.03-3.53 1.276-5.306.795-1.46-.383-2.727-1.349-3.593-2.574-.855-1.175-1.235-2.663-1.133-4.106.11-1.878 1.086-3.693 2.606-4.804.143-.113.357-.243.26-.458-1.425-5.513-2.907-11.011-4.367-16.515-.701-2.575-1.346-5.166-2.079-7.733-.89-.025-1.777.015-2.667-.01-.964.013-1.788-.937-1.68-1.888zm21.175 18.633c-.017.607-.048 1.216.023 1.821 3.685.785 7.36 1.622 11.049 2.39.015-1.14.017-2.279 0-3.418-3.69-.287-7.381-.53-11.072-.793zm-7.484 9.934c-1.498.321-2.691 1.776-2.6 3.328-.015 1.828 1.694 3.446 3.523 3.307 1.592-.035 2.991-1.376 3.154-2.948.15-1.104-.268-2.276-1.14-2.982-.79-.7-1.92-.923-2.937-.705zm27.436 2.174c-.5.163-.923.512-1.242.924-.816 1.022-.697 2.673.297 3.54.933.931 2.59.966 3.566.082.912-.723 1.17-2.082.694-3.123a2.816 2.816 0 0 0-1.324-1.338c-.624-.268-1.343-.284-1.991-.085z"/>
  </g>
</svg>
