<svg xmlns="http://www.w3.org/2000/svg" xmlns:xlink="http://www.w3.org/1999/xlink" viewBox="0 0 119 119">
  <defs>
    <circle id="sddsfsdfsdfsd" cx="59.5" cy="59.5" r="59.5"/>
  </defs>
  <g fill="none" fill-rule="evenodd">
    <use fill="#06B0DC" xlink:href="#sddsfsdfsdfsd"/>
    <circle cx="59.5" cy="59.5" r="56.5" stroke="#FFF" stroke-opacity=".649" stroke-width="6"/>
    <path fill="#FFF" fill-rule="nonzero" d="M46.275 40.076c1.452-.355 2.835.59 3.84 1.544 1.254 1.309 2.362 2.774 3.228 4.37.52 1.008 1.003 2.253.467 3.353-.625 1.198-1.409 2.324-2.373 3.276-.33.347-.679.702-.837 1.167-.183 1.032.396 1.982.92 2.823 3.183 4.541 7.163 8.513 11.675 11.732.74.523 1.587.896 2.474 1.08.488.118.902-.258 1.266-.526 1.202-1.03 2.353-2.196 3.848-2.797 1.106-.355 2.298-.006 3.273.552 1.898 1.071 3.664 2.425 5.04 4.128.817 1.015 1.17 2.552.438 3.709-.599.934-1.357 1.752-2.064 2.606-.764.847-1.484 1.795-2.51 2.343-1.07.507-2.281.636-3.45.529-1.826-.215-3.634-.632-5.334-1.346-4.643-1.896-8.874-4.731-12.565-8.112a51.958 51.958 0 0 1-9.638-11.429c-1.009-1.67-1.838-3.441-2.606-5.232-1.02-2.513-1.735-5.293-1.165-8 .326-1.48 1.65-2.363 2.688-3.335 1.067-.882 2.08-1.914 3.385-2.435zM42.426 49.1c.185 1.038.427 2.176 1.264 2.901-.125-1.373-.236-2.85.484-4.095.591-1.004 1.773-1.348 2.755-1.84-.31-1.002-.984-1.83-1.592-2.662-1.879 1.182-3.288 3.416-2.911 5.696zm29.14 26.966c-1.135.753-2.555.617-3.833.896 1.374.67 2.995 1.2 4.51.696 1.643-.4 3.046-1.553 3.94-2.967a12.086 12.086 0 0 0-2.683-1.538c-.495 1.048-.887 2.273-1.933 2.913z"/>
  </g>
</svg>
